<?xml version="1.0" encoding="UTF-8" standalone="no"?>
<!-- Creator: CorelDRAW X7 -->

<svg
   xmlns:dc="http://purl.org/dc/elements/1.1/"
   xmlns:cc="http://creativecommons.org/ns#"
   xmlns:rdf="http://www.w3.org/1999/02/22-rdf-syntax-ns#"
   xmlns:svg="http://www.w3.org/2000/svg"
   xmlns="http://www.w3.org/2000/svg"
   xmlns:sodipodi="http://sodipodi.sourceforge.net/DTD/sodipodi-0.dtd"
   xmlns:inkscape="http://www.inkscape.org/namespaces/inkscape"
   xml:space="preserve"
   width="80"
   height="45"
   version="1.1"
   style="clip-rule:evenodd;fill-rule:evenodd;image-rendering:optimizeQuality;shape-rendering:geometricPrecision;text-rendering:geometricPrecision"
   viewBox="0 0 2116.6666 1190.625"
   id="svg88"
   sodipodi:docname="HUniversal.svg"
   inkscape:version="0.92.0 r15299"><metadata
     id="metadata92"><rdf:RDF><cc:Work
         rdf:about=""><dc:format>image/svg+xml</dc:format><dc:type
           rdf:resource="http://purl.org/dc/dcmitype/StillImage" /><dc:title></dc:title></cc:Work></rdf:RDF></metadata><sodipodi:namedview
     pagecolor="#ffffff"
     bordercolor="#666666"
     borderopacity="1"
     objecttolerance="10"
     gridtolerance="10"
     guidetolerance="10"
     inkscape:pageopacity="0"
     inkscape:pageshadow="2"
     inkscape:window-width="1366"
     inkscape:window-height="705"
     id="namedview90"
     showgrid="true"
     inkscape:zoom="5.6568543"
     inkscape:cx="43.936385"
     inkscape:cy="48.562775"
     inkscape:window-x="-8"
     inkscape:window-y="-8"
     inkscape:window-maximized="1"
     inkscape:current-layer="svg88"
     units="px"><inkscape:grid
       type="xygrid"
       id="grid4569" /></sodipodi:namedview><defs
     id="defs4"><style
       type="text/css"
       id="style2"><![CDATA[
    .str1 {stroke:black;stroke-width:7.62;stroke-opacity:0.101961}
    .str0 {stroke:black;stroke-width:10.58}
    .fil1 {fill:none;fill-rule:nonzero}
    .fil0 {fill:white;fill-rule:nonzero}
    .fil2 {fill:black;fill-rule:nonzero;fill-opacity:0.301961}
    .fil3 {fill:#00B28D;fill-rule:nonzero;fill-opacity:0.600000}
   ]]></style></defs><g
     id="Background_x0020_Layer"
     transform="translate(0,-2619.3749)"><metadata
       id="CorelCorpID_0Corel-Layer" /></g><path
     id="path5915"
     style="fill:#b3b3b3;stroke-width:1.97687137"
     d="m 1070.4845,78.248174 c -71.28213,-0.19127 -142.51727,1.63608 -186.17377,5.55218 C 671.50723,102.88957 485.19538,154.83637 330.80233,238.12759 258.02855,277.38738 209.3325,312.7154 160.77198,361.4813 100.58576,421.92252 68.639502,483.53359 59.928482,555.97921 c -1.15371,9.59322 -3.13135,19.10379 -4.39783,21.13165 -1.71845,2.75064 -1.73818,4.84574 -0.0806,8.25497 1.2217,2.51339 2.71543,12.67184 3.32052,22.57185 9.48842,154.98548 142.974498,287.86478 389.211968,387.45142 33.69262,13.6262 110.81278,40.3328 116.47338,40.3328 1.90984,0 9.49946,1.8361 16.86133,4.0811 7.36182,2.2449 20.49897,6.2331 29.19738,8.8611 8.6978,2.6281 29.31857,7.4582 45.82328,10.7377 16.50409,3.2795 32.35547,6.8568 35.2207,7.9461 2.86552,1.0894 8.20503,1.9807 11.86899,1.9807 3.66327,0 9.11554,0.9327 12.116,2.0735 3.0007,1.1407 11.73472,2.9183 19.40592,3.9498 14.8139,1.9921 24.9604,3.6282 53.40637,8.6101 9.7431,1.7065 25.7556,3.5844 35.5838,4.1738 9.82817,0.5896 25.87517,2.3203 35.66077,3.8458 20.34067,3.1708 72.95527,6.8786 110.70484,7.8032 45.8064,1.1221 230.7485,-1.034 250.0739,-2.9151 10.3295,-1.0055 29.7528,-2.6744 43.163,-3.7106 13.4093,-1.0361 31.2022,-2.874 39.5376,-4.0848 8.3361,-1.211 20.9371,-3.0138 28.0045,-4.0079 7.0674,-0.994 19.5211,-2.793 27.6758,-3.9962 8.1545,-1.2034 21.0543,-3.0397 28.665,-4.0812 7.6105,-1.0414 18.2247,-3.1902 23.5872,-4.7762 5.3617,-1.5861 12.5904,-2.8842 16.0625,-2.8842 3.4706,0 9.8483,-1.2472 14.1699,-2.7722 4.3209,-1.5249 16.6253,-4.2676 27.3403,-6.0929 10.7151,-1.8252 23.0799,-4.4892 27.4791,-5.9189 4.3986,-1.4298 11.5557,-3.1911 15.9034,-3.9151 26.1896,-4.3604 119.6165,-34.5079 169.4433,-54.6767 203.7106,-82.4583 331.8439,-188.50928 374.7178,-310.13721 12.0002,-34.04541 13.3361,-43.7929 13.2007,-96.86665 -0.1047,-43.17913 -0.5975,-50.3604 -4.5173,-66.17892 -15.8435,-63.92503 -47.6435,-116.17175 -103.666,-170.32364 -37.2864,-36.04111 -77.0207,-65.49317 -130.9015,-97.02888 -157.3752,-92.10816 -350.228,-149.50222 -573.2932,-170.617066 -43.8563,-4.15139 -115.1851,-6.36069 -186.4668,-6.55226 z m -6.6027,10.98085 c 73.7855,-0.25554 151.8799,2.29744 155.192,5.4596 3.3526,3.20032 -36.3175,13.503936 -72.0632,18.718466 -11.5393,1.68337 -37.7826,3.94337 -58.3177,5.02326 -20.5351,1.07973 -41.7846,1.87762 -47.2209,1.77228 -9.4224,-0.18306 -20.9668,-4.32967 -22.429,-8.05808 -0.3759,-0.95864 -2.8993,-4.3808 -5.6103,-7.60247 -5.8739,-6.981736 -14.46283,-7.690116 -31.8575,-2.63324 -10.26,2.98147 -12.4901,2.97752 -29.9581,-0.0374 -10.3796,-1.79236 -21.91607,-3.466376 -25.63747,-3.718176 -3.7217,-0.2518 -7.0985,-1.45114 -7.4945,-2.66804 -1.0895,-3.32593 22.05137,-4.53314 114.26847,-5.96536 10.1346,-0.15766 20.5871,-0.2533 31.1282,-0.2899 z m -169.58237,5.94608 c 3.0118,-0.0449 5.131,0.11504 5.8071,0.53273 1.0983,0.67842 1.996,2.43276 1.996,3.899751 0,3.043115 -21.6281,10.938395 -29.96587,10.938395 -3.2679,0 -8.2029,2.39286 -12.2318,5.93061 -3.7147,3.26183 -7.6465,5.93063 -8.7337,5.93063 -1.0864,0 -4.3403,3.10109 -7.2317,6.89199 -7.3291,9.60867 -10.5334,10.91516 -20.95407,8.53687 -12.5762,-2.87045 -23.8844,0.64629 -34.9969,10.88826 -8.5924,7.91941 -9.5321,8.27984 -21.76107,8.33214 -10.5492,0.0449 -13.2624,-0.63135 -15.5331,-3.87262 -1.5099,-2.15982 -2.0911,-4.49433 -1.2858,-5.18545 0.8055,-0.69114 23.2058,-10.79473 49.77707,-22.45214 26.5722,-11.65748 49.25597,-22.41364 50.41027,-23.90395 1.8357,-2.370665 31.65247,-6.280796 44.70357,-6.467296 z m 355.76747,1.81472 c 4.3941,-0.14192 10.9624,0.38627 22.6988,1.48648 33.884,3.176326 100.7613,12.689966 140.9803,20.058356 37.7841,6.92226 101.4784,21.36373 103.7587,23.52551 1.6923,1.60498 -18.8929,4.00478 -35.1899,4.10042 -6.7388,0.0374 -11.4571,1.28738 -14.8268,3.92291 -6.8822,5.38339 -12.6913,4.72409 -28.6649,-3.25106 -13.6126,-6.79627 -14.1304,-6.89003 -31.8688,-5.68353 -16.1343,1.09738 -18.9085,0.76996 -26.3712,-3.1197 -14.9403,-7.78709 -42.8716,-8.61696 -60.3723,-1.79543 -5.4424,2.1215 -9.1035,0.97968 -44.4795,-13.84577 -21.2016,-8.88542 -39.3189,-16.88792 -40.2595,-17.78416 -0.9399,-0.89629 1.2836,-3.18515 4.9425,-5.085045 3.0373,-1.577401 5.2578,-2.387031 9.6526,-2.528981 z m -440.13201,7.872696 c 0.5201,0.003 0.9368,0.0225 1.2393,0.0672 3.0977,0.45354 -9.209,6.73495 -37.73807,19.25518 -23.2832,10.21798 -43.8049,18.97257 -45.6071,19.45599 -1.802,0.48342 -4.7974,-0.88331 -6.6525,-3.03483 -10.60373,-12.29928 -13.01535,-14.24349 -17.65285,-14.24349 -2.97761,0 -8.1801,2.84992 -12.76089,6.98852 l -7.73374,6.98471 -3.14303,-6.30127 c -1.72878,-3.46647 -3.14682,-6.52035 -3.14682,-6.78784 0,-2.9306 117.0768,-22.45459 133.1957,-22.38264 z m 404.25841,6.74143 c 5.7644,0.0911 14.6205,3.72776 46.2711,17.09304 23.99,10.13034 43.9573,19.44368 44.3682,20.69151 0.411,1.24784 -4.5264,5.47342 -10.9736,9.39013 -10.281,6.2451 -13.2757,7.10986 -24.3172,7.04262 l -12.5905,-0.0771 -28.1711,-23.71086 c -15.4932,-13.04151 -28.1704,-24.53559 -28.1704,-25.54486 0,-1.00928 3.6553,-2.82108 8.1202,-4.02326 1.9636,-0.529 3.5424,-0.89152 5.4633,-0.86104 z m -32.3134,8.65269 c 3.0448,-0.0881 4.3179,0.47072 5.2863,1.63712 1.2522,1.50868 13.6858,12.13118 27.6293,23.60664 13.9437,11.47547 25.3521,21.54059 25.3521,22.36718 0,0.82658 -2.6077,2.58309 -5.795,3.90357 -3.1882,1.32044 -8.697,4.54536 -12.2438,7.16229 v -0.003 c -3.5468,2.61695 -8.2786,4.69869 -10.5141,4.62174 -6.1902,-0.21294 -18.8398,-6.41523 -29.1163,-14.27831 -5.0807,-3.88712 -11.9359,-8.46357 -15.2354,-10.17002 -6.0176,-3.11178 -23.7135,-29.697 -21.3443,-32.06627 0.6426,-0.64254 9.6804,-2.67769 20.0816,-4.52518 8.0424,-1.42837 12.8557,-2.16642 15.8996,-2.25487 z m -51.0043,8.00019 8.0731,13.25506 c 4.4396,7.28949 7.683,13.87723 7.2123,14.64121 -0.4707,0.76396 -4.2043,2.00119 -8.2935,2.74912 -14.3927,2.63217 -22.6869,9.13332 -47.5144,37.23229 -7.0323,7.95961 -16.7492,10.10329 -19.0153,4.19704 -0.6651,-1.71982 -1.2015,-17.693 -1.2015,-35.49491 v -32.36736 l 6.4249,-0.97305 c 3.5333,-0.53646 17.2019,-1.48647 30.3715,-2.10812 z m -82.6621,4.03483 h 10.1198 l -0.5379,35.08944 -0.5379,35.08943 -17.6372,0.57532 c -21.7418,0.71055 -24.3987,-0.0524 -18.9811,-5.4711 5.077,-5.04696 5.0882,-8.87004 0.075,-13.88447 -7.7877,-7.78792 -25.69933,-3.05755 -25.69933,6.78774 0,2.5234 1.3756,5.73136 3.0581,7.12758 2.11683,1.75643 2.37903,2.96033 0.8534,3.90355 h -0.03 c -2.414,1.49217 -28.42067,1.85843 -34.20517,0.48268 -2.2392,-0.53198 -3.1736,-1.977 -2.4712,-3.81092 0.6254,-1.62477 1.1351,-4.11545 1.1351,-5.53679 0,-2.57837 23.69407,-20.98968 40.0046,-31.08552 4.7348,-2.9303 14.4845,-10.71418 21.6685,-17.29759 12.4222,-11.38253 13.5615,-11.96935 23.1857,-11.96935 z m -164.06487,6.11592 c 0.6552,0.005 1.0778,0.0672 1.2085,0.201 0.5237,0.52374 -2.4047,7.09162 -6.50597,14.59486 -4.1012,7.50316 -8.7731,13.86578 -10.3862,14.13926 -3.4811,0.5895 -23.6916,-16.53093 -23.6916,-20.06987 0,-3.6236 8.9655,-7.77477 13.9656,-6.46731 2.3872,0.62464 9.1389,0.17035 15.004,-1.00769 4.3986,-0.88098 8.44017,-1.40438 10.40567,-1.39003 z m -7.62557,41.32899 c 2.1607,0 4.57207,5.5066 6.70677,15.32075 l 1.3976,6.42479 h -10.35147 c -9.8992,0 -10.2035,-0.15537 -7.0737,-3.61396 1.7993,-1.98835 3.2704,-5.16171 3.2704,-7.05031 0,-4.52318 3.581,-11.08127 6.0504,-11.08127 z m 72.18284,16.68753 c 0.6515,0.10535 0.8416,0.76571 0.8416,2.02325 0,1.96983 -1.8484,3.03476 -5.2705,3.03476 -5.7948,0 -5.7195,-0.35341 0.8225,-3.75682 1.843,-0.95868 2.9551,-1.40675 3.6064,-1.30119 z m -531.92524,15.07366 5.93061,0.11957 -6.06564,3.03094 c -12.80579,6.39146 -13.41667,17.19605 -1.67581,29.64538 3.71491,3.93912 6.75293,7.33938 6.75293,7.55606 0,0.21593 -9.71334,8.50707 -21.58719,18.42506 -28.0307,23.41382 -67.43545,61.56609 -87.56929,84.78931 l -15.95396,18.4057 -46.66876,-0.40571 c -59.84268,-0.52153 -81.26028,-1.36379 -81.26028,-3.19307 0,-2.71363 22.55194,-23.43599 45.46799,-41.78074 26.22104,-20.98992 61.50049,-44.79884 96.86674,-65.37185 36.46399,-21.21177 98.72002,-51.36304 105.76266,-51.22109 z m 449.4874,3.4904 c 2.2485,-0.006 4.6576,0.0299 7.1119,0.10019 16.06947,0.48492 18.38577,1.0455 23.19747,5.61016 5.106,4.84416 5.744,4.95743 14.2938,2.56374 4.9222,-1.37814 9.9638,-3.72857 11.2049,-5.22402 3.0916,-3.72513 21.54067,-3.73208 21.54067,-0.008 0,1.49105 -4.3916,20.83968 -9.7608,42.9969 -8.28277,34.18065 -14.16257,62.41321 -21.56017,103.54638 l -1.4209,7.90747 -75.55347,0.51778 c -71.05764,0.48714 -75.54674,0.31009 -75.45704,-2.96534 0.052,-1.91565 5.6294,-15.93701 12.398,-31.15884 11.62957,-26.15454 12.83757,-28.02461 21.99277,-34.01612 8.1896,-5.35993 10.9435,-6.1677 17.7995,-5.2279 7.6614,1.05006 8.571,0.60817 16.45967,-7.94991 9.2715,-10.05856 9.913,-12.81432 4.9384,-21.23597 -3.3929,-5.74411 -3.3595,-5.88108 5.7298,-23.03902 5.0283,-9.49324 9.7469,-20.13951 10.4866,-23.66067 0.7382,-3.52116 2.356,-7.03141 3.5986,-7.79942 0.9319,-0.57531 6.2548,-0.93806 13.0003,-0.95748 z m 91.33754,0.33171 h 47.9622 47.9582 l 2.2669,6.4248 c 1.2478,3.53364 2.5075,17.09997 2.7989,30.14732 0.4559,20.33856 0,24.50422 -3.1193,29.20904 -4.9231,7.3999 -11.9697,12.07117 -24.3212,16.11997 -18.2771,5.99122 -28.162,23.52066 -24.4829,43.42167 0.1368,0.74269 0.3392,1.57037 0.5095,2.35917 1.3461,0.0814 2.6596,0.87375 5.0426,1.73744 2.2406,4.98636 2.1514,3.51572 2.1081,6.96156 0.075,1.16014 0.1465,2.37868 -0.1419,3.49808 0.2533,0.48192 0.4931,0.9693 0.6523,1.48656 0.1166,0.003 0.201,-0.003 0.3399,0.003 0.198,0.008 0.3945,0.0299 0.591,0.0449 0.3758,-0.19572 0.7106,-0.34669 0.5021,-0.11957 -0.052,0.0524 -0.1128,0.0933 -0.1659,0.1427 0.06,0.006 0.1226,0.008 0.1861,0.0158 0,0.002 0.093,0.0158 0.085,0.0224 2.0263,-1.08183 1.4243,-1.09954 3.1353,-1.10035 1.2075,-0.003 2.415,-0.0158 3.6217,0.0158 1.5403,0.0374 3.0775,-0.30633 4.6062,0.11582 0.1935,0.0799 0.3856,0.16072 0.5791,0.23908 0.1225,0.0158 0.3183,0.0223 0.4094,0.0449 0.9019,0.16367 1.7232,0.63135 2.5638,0.99612 0.1441,0.0597 0.2622,0.16505 0.3863,0.25851 0.5372,0.12472 1.0793,0.2361 1.6022,0.40945 0.5454,0.18089 1.1918,0.54394 1.7954,0.92283 0.093,-10e-4 0.1839,-0.002 0.2936,-0.003 0.1718,-0.003 0.3415,-0.008 0.5134,-0.0158 0.2547,-0.003 1.8356,-0.0158 2.3398,0.0524 0.081,-0.0224 0.06,-0.0224 0.1083,-0.0374 0.5619,-0.10675 1.1306,-0.1621 1.699,-0.22787 0.5125,-0.2548 1.0268,-0.50286 1.5637,-0.69861 0.461,-0.16802 0.9528,-0.24581 1.4401,-0.3011 0.1344,-0.0672 0.2682,-0.13676 0.4095,-0.1965 0.6351,-0.27569 1.2871,-0.53046 1.9306,-0.79534 0.5678,-0.11957 1.1007,-0.35936 1.6679,-0.4752 0.1262,-0.0224 -0.4558,0.24506 -0.3363,0.20097 0.5604,-0.20395 1.1096,-0.45649 1.6641,-0.68362 -0.2167,0.22937 -0.1142,0.0963 0.4752,-0.15458 -0.9265,0.61341 -0.1643,0.0964 1.4325,-0.71055 0.5455,-0.27572 1.1395,-0.45355 1.7215,-0.64105 0.1419,-0.0449 -0.5155,0.27044 -0.3736,0.21965 0.5679,-0.20996 1.117,-0.46548 1.6759,-0.6986 0.269,-0.0935 0.5305,-0.19875 0.807,-0.28168 0.09,-0.0299 -0.3288,0.19872 -0.2466,0.15835 4.013,-1.83709 2.0472,-0.96259 2.0696,-0.97686 0,-0.002 0,-0.003 0,-0.008 0,0 0,-0.0158 0,-0.0158 0,-0.006 0,0.008 0.1718,-0.0769 1.2044,-0.9303 1.5534,-1.15824 2.8572,-1.65645 0.2391,-0.31979 0.4557,-0.51255 1.3471,-1.08107 0.1793,-0.11426 -0.3362,0.26 -0.5006,0.39001 0.2242,-0.10316 0.4558,-0.19873 0.6874,-0.29736 0.1121,-0.0911 0.2316,-0.20249 0.3063,-0.24359 0.1643,-0.0844 0.4857,-0.2204 0.7472,-0.33994 0.3213,-0.22266 0.65,-0.43112 0.9691,-0.6605 0.075,-0.0524 0.075,-0.0524 0.1272,-0.11207 -0.2615,0.1277 -1.9441,1.18559 0.1196,-0.11207 -0.075,0.0374 -0.075,0.0524 -0.1196,0.11207 0,-0.0158 0.1196,-0.0672 0.1121,-0.0597 0.7666,-0.62987 0.9048,-0.76539 2.1047,-1.40153 0.075,-0.0522 0.082,-0.1091 0.1196,-0.16212 0.3437,-0.42513 0.8286,-0.71577 1.259,-1.0541 1.6168,-1.27121 3.4392,-2.23478 5.0112,-3.56764 1.7872,-1.51464 3.5117,-2.39202 5.0695,-2.77217 0.6351,-0.50884 1.3337,-1.03207 2.166,-1.60239 3.5334,-2.42111 9.0938,-6.87711 12.3559,-9.89977 3.2621,-3.02256 8.496,-6.46217 11.6333,-7.64498 1.6931,-0.63883 3.2935,-0.94838 4.9111,-0.86484 4.8521,0.25029 9.8865,4.02528 18.2436,12.96167 5.1554,5.51279 8.7209,7.60239 12.973,7.60243 3.9831,0 7.7257,1.96065 11.6685,6.10823 10.8727,11.43603 21.6513,14.50776 30.1047,8.58702 1.5317,-1.07316 3.0559,-1.80553 4.5562,-2.24329 0.1046,-0.21967 0.254,-0.61492 0.3736,-0.82242 0.075,-0.45799 0.1419,-0.95621 0.1717,-1.23558 0,-0.13363 0,-0.002 -0.075,-0.10003 v -0.21217 c 0.284,-2.46991 0.1121,-1.23066 0.396,-2.5985 0,-0.11207 0,-0.22713 -0.075,-0.33997 -0.075,-1.35019 0,-2.7024 0,-4.05411 -0.2391,-1.72832 -0.9079,-3.3531 -1.3935,-5.01937 -0.411,-1.14539 -0.5977,-2.37142 -1.2201,-3.43253 -0.6501,-1.77252 -0.538,-1.45912 -0.665,-2.44406 0,-0.0158 0,-0.0224 0,-0.0374 0,0.0524 0,0.0672 0,0.10456 0,0.0524 -0.075,-0.0994 -0.075,-0.15083 0,-0.0524 -0.075,-0.16288 -0.075,-0.24356 -0.4408,-1.00376 -0.5753,-2.10626 -0.5529,-3.19696 0,-0.40499 0.1121,-0.86889 0.1046,-1.28193 -0.1495,-2.14092 1.0923,-3.91722 2.2086,-5.59858 1.4398,-1.79363 3.1508,-3.32891 4.8722,-4.84178 0.157,-0.14036 0.3213,-0.27942 0.4857,-0.41691 -0.3063,-0.0449 1.2052,-0.81245 1.5257,-1.13897 0.082,-0.0882 0.1196,-0.1427 0.1269,-0.1696 -0.4408,0.19796 -0.1943,0.0158 -0.075,-0.0223 0,-0.008 0.075,-0.003 0.075,0.0223 0.2764,-0.12473 0.7725,-0.37361 1.8417,-0.9499 0.6202,-0.2914 1.2553,-0.51479 1.8882,-0.7683 0.097,-0.0374 -0.3812,0.13598 -0.2914,0.0889 0.2539,-0.13145 0.5155,-0.2316 0.7799,-0.33997 0.1869,-0.0769 -0.3661,0.16429 -0.5529,0.24733 1.0453,-0.1091 1.6901,-0.84505 2.6368,-1.10042 1.7476,-0.47147 3.5125,-0.68963 5.3056,-0.86873 0.4334,-0.15776 0.7174,-0.22192 0.9497,-0.23161 0.6874,-0.0299 0.8831,0.45427 3.2241,0.5484 0.4332,0.0158 -0.8056,-0.3265 -1.2082,-0.49013 0.4483,0.0672 0.9003,0.13676 1.3509,0.20472 3.0349,0.66274 5.9802,1.76614 8.7261,3.22401 0.075,0.0889 0.6873,0.55664 2.6607,1.91895 0.1642,0.1105 -0.2093,-0.22939 -0.3887,-0.44009 v -0.008 c 0,-0.0299 -0.075,-0.0374 -0.075,-0.0597 -0.075,-0.0747 0.1794,0.1277 0.2018,0.1621 1.2926,0.87165 2.0375,1.67328 2.4903,3.44408 0.1046,0.42587 0.1196,0.87102 0.1196,1.31285 0.396,1.18453 0.2914,2.45262 0.2391,3.69881 0.1419,2.1883 -1.0602,3.98463 -2.2863,5.65648 -0.5156,0.44756 -0.999,0.92715 -1.5399,1.33983 -0.2914,0.22338 -0.6351,0.37058 -0.9542,0.55961 -0.5902,0.35414 -1.1416,0.74044 -1.7184,1.1159 -0.6426,0.59921 -1.5257,0.55141 -2.2736,0.86484 -0.075,0.0224 -0.082,0.0755 -0.1271,0.0927 -1.0296,0.35643 -1.2896,0.40572 -1.3628,0.40124 0,0.0158 0,0.0449 -0.1121,0.15458 -0.2914,0.13004 -0.5753,0.26375 -0.8719,0.39003 -0.1944,0.0799 -0.3886,0.15992 -0.5828,0.23909 0.075,-0.0158 0.2166,-0.0672 0.1717,-0.0374 -0.254,0.1524 -0.5081,0.31007 -0.7875,0.40571 -0.075,0.0224 -0.2241,0.0814 -0.3213,0.11957 -0.4408,0.29214 -0.9107,0.56111 -1.3702,0.76832 -0.3064,0.20321 -0.6277,0.39001 -0.9348,0.58726 -0.1045,0.0672 -0.1943,0.15396 -0.3063,0.2122 -0.2167,0.1166 -0.4408,0.22114 -0.6575,0.32801 -0.1271,0.10456 -0.254,0.2062 -0.381,0.30856 -0.2093,0.24433 -0.6277,0.68366 -1.4398,1.45176 -0.075,0.0522 -0.1271,0.0844 -0.1944,0.1277 -0.1045,0.1607 -0.127,0.20398 -0.3063,0.50209 -0.075,0.10754 0.269,-0.4229 0.2167,-0.3086 -0.1196,0.25033 -0.5455,0.97791 -0.7323,1.28954 0.075,-0.0449 0.1345,-0.18009 0.1121,-0.1277 -0.4034,0.9784 -1.1237,2.26891 -1.7566,3.11202 -0.2241,0.30261 -0.4856,0.57832 -0.7322,0.86491 0,-0.006 0,0.0374 -0.097,0.13895 v 0.0374 c 0,0.0374 0,0.0747 -0.075,0.11581 -0.2316,1.13579 -0.1121,0.97028 -0.5081,1.8881 0.075,-0.15083 0.2391,-0.60222 0.1794,-0.45203 -0.3736,0.94067 -0.2989,0.76182 -0.3886,0.99223 -0.09,0.46324 -0.1717,0.92656 -0.2615,1.39002 0,0.0524 -0.075,0.11051 -0.075,0.16587 -0.1717,0.4565 -0.2914,0.93864 -0.523,1.36677 -0.269,0.48266 -0.4558,0.80132 -0.5604,0.97684 -0.3138,0.38031 -0.6201,0.7624 -0.9302,1.14286 0,0.0224 0,0.0449 0.075,0.0672 0,0.0158 -0.075,0.0299 -0.075,0.0449 0,0.008 -10e-4,0.0158 0,0.0224 0,-0.008 0.075,-0.0449 0.075,-0.0524 0.1793,0.23911 0.3586,0.48344 0.4184,0.7684 10e-4,0.002 0,0.0158 0,0.0158 0.2839,0.19948 0.8802,0.8422 1.0737,0.99612 0.075,0.0374 -0.075,-0.0964 -0.097,-0.1427 0.2391,0.21146 0.4707,0.42589 0.7098,0.63733 0.075,0.0747 0.075,0.0672 0.1046,0.13145 0.075,0.0223 0,0.006 0.075,0.0223 -0.075,-0.0524 -0.1046,-0.10457 -0.1643,-0.15458 0,-0.0374 0,-0.0299 -0.075,-0.0672 -0.075,-0.086 0.1121,0.10003 0.2317,0.22413 0.3437,0.11348 -0.075,-0.0298 0.3735,0.12332 -0.4333,-0.31828 0.5754,0.31381 0.8025,0.54469 0.1196,0.12035 0.2167,0.25927 0.3213,0.39002 -0.1046,-0.0672 -0.2466,-0.16506 -0.1944,-0.11207 0.075,0.0374 0.082,0.0769 0.1196,0.11582 0.1046,0.0448 0,0.008 0.1419,0.0597 0,-0.0158 0,-0.0299 0,-0.0449 0.09,0.0524 0.142,0.0793 0.2167,0.11957 -0.2017,-0.0836 0,-0.008 -0.1943,-0.0777 0.1121,0.14349 0.2391,0.2772 0.3512,0.42515 0.075,0.0524 0.1046,0.10613 0.1569,0.15833 0,-0.0158 -0.075,-0.0299 -0.075,-0.0524 0.1869,0.24732 0.3662,0.49613 0.5679,0.72625 0.142,0.15395 -0.1045,-0.25553 -0.2988,-0.48265 -0.075,-0.0597 -0.1272,-0.13004 -0.1943,-0.19275 0,0.0224 0.075,0.0374 0.097,0.0597 0,0.0224 0.075,0.0904 0.1045,0.13145 0.3288,0.3123 0.6725,0.60221 1.0311,0.88031 -0.1494,-0.20398 -0.3213,-0.4326 -0.4184,-0.55588 0,-0.0448 0.097,0.0597 0.1496,0.0927 0,0.0158 0,0.0299 0.075,0.0449 -0.097,-0.1091 -0.1943,-0.21371 -0.2839,-0.328 -0.082,-0.11128 0.1419,0.15239 0.2914,0.328 0,0.002 0,0.006 0,0.008 0.1717,0.20024 0.3287,0.41465 0.4931,0.62164 0,-0.0158 -0.1271,-0.1973 -0.2839,-0.39003 0.2017,0.21219 0.4034,0.42515 0.6052,0.63732 0.075,0.008 0.075,0.0299 0.1196,0.0449 0,0.003 -0.075,-0.0828 -0.075,-0.0597 0,0.0158 0.075,0.0524 0.075,0.0672 0.381,0.14567 0.7023,0.51704 0.9608,1.00779 0.1271,0.1502 0.2167,0.27645 0.1419,0.31305 0.075,0.1338 0.1122,0.26004 0.1643,0.3975 0.075,0.0524 0.1271,0.13598 0.1718,0.17417 0.5529,0.52151 0.9123,1.48334 1.2089,2.06956 0.082,0.4483 0.1793,0.89338 0.2466,1.34363 0.075,0.0903 0.09,0.17258 0.1271,0.26675 0.1718,0.4976 0.1494,1.04354 0.2242,1.56372 -0.075,0.8718 -0.097,1.74091 -0.075,2.61395 v 2.20856 c 0.075,1.66429 -0.3362,1.57732 -1.4981,4.01936 -0.075,0.10988 -0.2839,0.30185 -0.4856,0.48641 0,0.0299 -0.082,0.10081 -0.1121,0.13895 0,-0.008 -10e-4,-0.008 0,-0.0158 0.2615,-0.20325 -0.8346,1.037 -0.6276,0.77607 0.3213,-0.4072 0.4408,-0.55291 0.6052,-0.76061 -0.082,0.0672 -0.09,0.0785 -0.1643,0.13895 -2.0203,1.60071 -1.5362,1.58936 -2.1809,1.87261 -0.1046,0.0672 -0.2168,0.1427 -0.2765,0.18899 0,0.0158 0,0.0299 -0.075,0.0524 -0.4633,0.25552 -0.8877,0.58278 -1.3823,0.7645 -0.4333,0.15992 -1.4301,0.61714 -1.6759,0.53646 -0.2241,0.0449 -0.4557,0.0866 -0.6874,0.10832 -0.2839,0.2869 -0.9041,0.32873 -1.3202,0.47071 -1.0819,0.36835 -2.1623,0.32724 -3.2704,0.20844 -0.6425,-0.0374 -1.3008,0.0158 -1.9501,0.0158 -1.0632,-0.006 -2.1249,-0.006 -3.1889,-0.003 -1.0587,0.002 -2.1182,0 -3.1777,0 -1.0437,0 -2.0905,0 -3.135,0 -0.8989,0 -1.7955,0 -2.6951,0 h -2.8145 -2.1974 -2.5053 c -1.0326,0.0449 -1.6138,-0.20324 -2.7413,-0.55216 0.2839,0.14114 -0.7681,-0.18682 -1.1275,-0.29362 -0.1046,-0.0299 -0.4259,-0.12254 -0.3213,-0.0927 0.2839,0.0777 0.9743,0.18089 0.8607,0.1427 0,-0.003 0.097,0.0158 0.075,0.0158 -0.7546,-0.18148 -1.5249,-0.29289 -2.2818,-0.46324 0,0.0158 0,0 0,0.0223 0,-0.008 0,-0.0158 -0.075,-0.0223 0,-0.003 0,-0.008 -0.075,-0.0158 -0.1196,-0.0299 -0.4632,-0.1876 -0.3437,-0.15098 0.1344,0.0449 0.269,0.10691 0.396,0.1621 0,0.002 0,0.002 0,0.003 -0.7173,-0.41169 -0.3287,-0.18306 -0.7247,-0.40572 -0.3587,-0.0597 -0.7248,-0.11504 -1.0812,-0.18898 -0.075,-0.0158 -0.127,-0.0449 -0.1943,-0.0672 0,-0.006 0,-0.003 -0.075,-0.008 0,-0.008 -0.075,-0.0224 -0.09,-0.0374 0,-0.002 0,-0.002 0,-0.003 -0.2915,-0.0597 -0.5829,-0.1352 -0.869,-0.20847 -1.318,0.0158 -2.5935,-0.30335 -3.7336,-1.01548 -1.6483,-1.30604 -0.9549,-0.86311 -1.9808,-1.47498 -0.6723,-0.45203 -1.3,-0.98206 -1.8798,-1.55985 h -1.0198 l -6.425,-7.73764 c -3.7059,-4.46397 -7.6382,-8.44414 -11.5518,-11.84187 -0.3213,-0.14411 -0.6426,-0.29587 -0.9654,-0.44379 -0.075,-0.0158 -0.082,-0.0224 -0.1121,-0.0449 -0.2839,-0.17415 -0.5604,-0.34816 -0.8338,-0.53272 -0.075,0.16507 -0.7584,-0.45503 -1.0543,-0.66796 0,-0.0223 -0.075,-0.0597 -0.09,-0.0814 0,-10e-4 0,-0.003 0,-0.003 -0.1419,-0.0524 -0.4408,-0.18384 -1.2156,-0.58278 -1.2134,-0.62538 -1.6565,-1.27546 -1.3128,-0.78385 -0.5006,-0.33622 -0.6874,-0.47295 -0.919,-0.66421 v 0.003 c -0.4707,-0.1718 -1.2657,-0.54318 -1.6953,-0.73745 -1.0782,-1.04073 -1.4824,-0.89256 -2.5718,-1.29349 -1.1566,-0.42512 -1.1267,-0.45875 -2.1772,-1.02698 -1.2186,-0.57981 -2.5142,-1.03467 -3.6798,-1.72206 -0.2316,-0.1352 -0.4483,-0.2884 -0.665,-0.43634 -0.075,-0.0299 -0.3063,-0.10675 -0.508,-0.17773 -0.6426,0.0449 -1.0946,0.0672 -1.992,0.0672 -2.6516,0.006 -5.3026,-0.008 -7.9543,-0.0158 -1.5929,-0.0597 -3.1874,-0.11129 -4.7796,-0.18899 -0.9563,-0.0448 -1.9105,-0.118 -2.8654,-0.18524 -0.1569,-0.0158 -0.2839,-0.0299 -0.4333,-0.0374 -8.9668,2.26214 -18.2697,6.08515 -21.3869,9.52911 -3.2397,3.58018 -5.1046,4.54336 -6.0468,2.63718 -0.2988,0.28467 -0.523,0.48867 -0.381,0.26675 0.09,-0.14489 0.2167,-0.26374 0.3287,-0.3975 -0.075,-0.0978 -0.082,-0.20545 -0.1195,-0.31678 -0.8921,0.70755 -1.7842,1.41549 -2.6755,2.12359 0.4333,-0.18464 1.5966,-0.91871 1.3014,-0.55216 -0.1942,0.24433 -0.4931,0.36759 -0.7994,0.4752 -0.4558,0.32352 -0.931,0.62985 -1.3942,0.94597 -0.1344,0.0866 -0.6575,0.41394 -1.1238,0.69487 -1.2171,1.34899 -6.646,2.79148 -4.7407,2.63323 0.075,-0.008 0.1046,-0.0158 0.1346,-0.0299 0.2689,-0.11051 0.9652,-0.64032 0.7598,-0.43259 -0.9653,0.97607 -2.3939,1.56673 -3.5827,2.13903 0.7771,-0.21294 0,-0.006 -1.1468,0.47071 -0.2092,0.0874 0.8331,-0.33098 0.6351,-0.21966 -1.0647,0.60744 -2.2811,0.9643 -3.4407,1.32434 0.1419,-0.0299 0.5678,-0.14645 0.4258,-0.0964 -0.6201,0.22265 -1.2514,0.39446 -1.8686,0.61789 -0.075,0.0223 0.1271,-0.006 0.1943,-0.008 -0.097,0.0374 -0.1943,0.0672 -0.2914,0.10378 -0.3288,0.21368 -0.7098,0.3564 -1.058,0.53647 -1.9382,0.7255 -3.0013,1.13045 -4.9648,1.66804 -8e-4,0.008 0.022,0.003 0,0.0224 -0.269,0.27869 -0.6859,0.35792 -1.0425,0.50584 -1.4839,0.61493 -1.7725,0.63882 -2.6063,0.77607 -1.2238,0.75455 -2.5873,1.05583 -3.9846,1.1197 -0.381,0.10613 -0.767,0.201 -1.1507,0.30112 -1.3902,0.31604 -2.7805,0.0224 -4.1776,0.0597 -2.3311,0.15614 -4.3542,-0.11285 -6.5329,-1.15444 -0.5679,-0.40346 -1.1144,-0.82247 -1.6912,-1.20852 -0.1877,-0.12692 0.3721,0.26971 0.529,0.43259 0,0.0299 -0.142,-0.0374 -0.1129,-0.008 0.097,0.0927 0.4707,0.24508 0.3362,0.22041 -1.4763,-0.27793 -2.1208,-0.69114 -3.2549,-1.33981 -0.1621,0.1166 -2.2505,0.0881 -2.4905,0.0852 -0.75,-0.0158 -1.5008,-0.008 -2.251,-0.008 -0.198,0.10753 -0.3975,0.20997 -0.591,0.32427 -0.1046,0.0597 0.4632,-0.1427 0.3512,-0.0964 -0.4409,0.18385 -0.896,0.33995 -1.3435,0.50955 -1.8285,0.65155 -3.6982,0.19571 -5.5639,0.23537 -0.4946,0.0224 -0.9568,0.0299 -1.4092,0.0299 -0.1202,0.1352 -0.213,0.24956 -0.3437,0.39375 -3.298,3.64461 -6.2501,3.89581 -45.9469,3.89581 h -42.42047 l 1.3321,-9.39013 c 3.7835,-26.7327 19.63497,-99.25191 30.89627,-141.3463 z m 206.1773,162.38146 c 0,7.5e-4 0,-7.5e-4 0,0 0.1868,0.0374 0.5305,0.10832 0.4034,0.0747 -0.1642,-0.0448 -0.3361,-0.0672 -0.5005,-0.10378 0,0.0158 0.075,0.0223 0.097,0.0299 z m 35.1324,-22.32862 c 0,-0.002 0,-0.002 0,-0.003 0.075,0.0597 0.1271,0.11582 0.1943,0.17415 -0.075,-0.0597 -0.09,-0.0777 -0.1792,-0.16963 z m -182.5404,1.42087 c -0.4303,0.0799 -0.3527,0.0449 -0.3511,0.0299 -0.2459,0.20922 -0.5171,0.38705 -0.8071,0.54471 0.4334,-0.21071 0.861,-0.41618 1.1582,-0.57534 z m 715.6353,-140.00649 40.2205,20.70309 c 78.5688,40.44278 134.2056,77.96298 177.8997,119.97138 v 0.003 l 16.5176,15.88451 -72.3023,0.0597 -72.3067,0.0597 -10.7219,-13.25505 c -11.2359,-13.88613 -52.6175,-56.40784 -70.7161,-72.66164 -10.5072,-9.4363 -11.0385,-12.81079 -2.027,-12.89597 5.5708,-0.0524 8.2166,-5.28745 6.7491,-13.35168 -1.0198,-5.6038 -4.2715,-10.23456 -13.2084,-18.79954 -6.5212,-6.24988 -14.0213,-11.90814 -16.6648,-12.57161 -4.8431,-1.21556 -6.7401,-4.72986 -2.5522,-4.72986 1.2403,0 6.0483,-1.89361 10.6837,-4.20855 z m -603.27,3.51742 c 0.7725,0.0449 1.7147,0.42887 2.9767,1.10424 2.2459,1.20188 3.3189,2.8925 2.3863,3.75689 -2.3647,2.19264 -10.591,4.52886 -10.591,3.00771 0,-0.68814 0.9288,-2.98351 2.0614,-5.10045 1.0617,-1.98319 1.8791,-2.84371 3.1666,-2.76839 z m -611.97302,6.8766 c 11.49284,0 12.60639,2.95258 2.6795,7.10053 -5.00227,2.09003 -8.07707,5.24075 -10.58322,10.83799 -1.94322,4.34036 -5.04648,8.99899 -6.89587,10.35159 -2.07712,1.51852 -3.95789,6.82922 -4.91516,13.88057 -1.83353,13.51081 -3.89936,15.93259 -21.34781,25.04291 -7.70484,4.02237 -15.77584,10.10921 -19.28222,14.54079 l -6.03103,7.62181 0.20845,28.45613 0.21219,28.45611 h -69.2136 -69.21385 l 3.76855,-4.43248 c 38.7344,-45.60111 112.20111,-112.05941 123.98678,-112.15655 6.69626,-0.0524 12.40764,-2.81091 19.46766,-9.39013 3.98911,-3.71744 7.97963,-5.09836 16.46751,-5.70281 12.01066,-0.85505 16.58815,-2.6514 25.37115,-9.95775 4.20049,-3.49397 8.00593,-4.64871 15.32076,-4.64871 z m 524.70482,3.95369 c -4.8819,0 -12.8498,6.0973 -12.8498,9.83417 0,1.06046 -2.5072,1.42739 -5.5714,0.81473 -4.6264,-0.92529 -6.6393,0.0986 -11.8611,6.04641 -3.4593,3.93973 -6.255,8.24645 -6.255,9.56773 0.045,2.86277 11.07,19.49074 14.2127,21.43284 3.398,2.10021 7.6194,-0.30708 9.5792,-5.46341 2.1526,-5.66036 4.9883,-5.98058 7.722,-0.87261 1.1186,2.08982 3.4354,5.2034 5.1508,6.91904 1.7155,1.71571 4.2164,3.11978 5.5523,3.11978 5.6743,0 7.1701,-5.0382 7.1701,-24.12016 0,-16.73745 -0.5379,-19.90894 -3.9539,-23.32474 -2.1743,-2.17455 -6.1777,-3.95378 -8.8959,-3.95378 z m 33.4446,3.95378 c 5.4917,0 9.247,2.5364 12.1975,8.24337 2.7809,5.37839 2.6838,6.30675 -1.386,13.10452 -2.4096,4.02378 -5.7054,8.87355 -7.3252,10.77627 -1.6206,1.90265 -3.6984,3.45952 -4.6175,3.45952 -0.9182,0 -1.6721,-8.0063 -1.6721,-17.79185 0,-14.041 0.5903,-17.79183 2.8033,-17.79183 z m 588.2813,10.05809 c 5.9369,-0.10081 10.8405,3.03693 34.5108,22.09313 15.174,12.21597 36.9697,31.09202 48.4333,41.94667 22.0824,20.90818 59.2927,60.30764 59.3674,62.80048 0,0.81538 -20.2363,1.48259 -45.0002,1.48259 h -45.0241 l 0.7323,-7.6951 c 0.6275,-6.58359 -0.2989,-8.83285 -6.3936,-15.58331 -3.9203,-4.33923 -9.7848,-8.9937 -13.0349,-10.33993 -7.0255,-2.91004 -7.7347,-8.41688 -1.7148,-13.35161 2.3079,-1.89218 5.8667,-5.16656 7.9081,-7.27432 2.8347,-2.92759 3.7103,-3.14785 3.7103,-0.93432 0,2.54933 2.9872,6.61345 14.7684,20.08916 3.8981,4.45909 6.0768,4.36029 10.9311,-0.49389 6.1626,-6.1629 5.0502,-14.5906 -3.1202,-23.6336 -8.7284,-9.66166 -13.6895,-11.47541 -18.78,-6.86883 -2.1032,1.90362 -4.1885,3.09475 -4.6294,2.64864 -0.4408,-0.44683 -1.7656,-7.74131 -2.9422,-16.21265 -3.4056,-24.52493 -8.5647,-31.03041 -33.8273,-42.65718 -12.3275,-5.67357 -12.5514,-5.90274 -5.892,-6.01556 z m -469.9005,69.67701 c -0.9631,0.44605 -3.2263,1.47961 -3.6678,1.55985 -0.075,0.008 -0.075,0.002 -0.097,0.003 -0.1271,0.1352 -0.2466,0.27346 -0.3736,0.40945 4.7579,-2.27668 5.0949,-2.41939 4.1318,-1.97303 z m -427.22838,0.78378 c 2.5093,0.34965 0.2331,7.18411 -9.4557,30.29016 l -11.56,27.57192 h -27.1782 -27.18199 l 4.8843,-7.19706 c 2.68538,-3.9572 4.88048,-9.15438 4.88048,-11.55228 0,-4.71161 4.03482,-8.89081 11.86122,-12.2821 2.71819,-1.17775 10.27929,-6.9906 16.80339,-12.91921 10.6054,-9.63813 13.012,-10.89881 22.7341,-11.89978 5.9796,-0.61565 11.7617,-1.42095 12.8496,-1.79155 0.5462,-0.18603 1.0044,-0.27048 1.3628,-0.2204 z M 1202.282,326.2833 c 0,0.0597 0,0.0957 -0.075,0.15458 0,0.003 0,0.0158 0.075,0.0158 0,-0.12551 0,-0.0836 0,-0.15835 0,-0.003 0,-0.008 0,-0.0158 z m 552.424,7.89983 c -4.4382,0.19058 -8.5946,2.46559 -9.657,6.69893 -0.6799,2.70159 -2.0219,4.91127 -2.9917,4.91134 -2.4955,0 -9.6728,7.47575 -9.6728,10.07736 0,1.19472 2.7631,4.75309 6.1395,7.90747 3.472,3.24343 8.3451,5.73761 11.2126,5.73761 6.1335,-5e-5 12.3014,-5.16049 12.3014,-10.28979 0,-2.05999 1.3627,-6.37711 3.0267,-9.59477 2.2213,-4.29454 2.482,-6.86167 0.9884,-9.65268 -2.1907,-4.09357 -6.9097,-5.98622 -11.3471,-5.79547 z m -636.1401,10.42878 c 0,0.0224 0.075,0.0524 0.09,0.0769 0,0.002 -0.075,0.001 0,0.008 0,0.0158 0.075,0.0299 0.1271,0.0524 -0.075,-0.0449 -0.1419,-0.0897 -0.2092,-0.1352 0,0 0,0 0,0 z m 81.5195,0.10003 c 0,-0.0299 -0.097,0.0597 -0.3287,0.27423 v 0.1352 c 0,-0.008 0,-0.008 0,-0.0158 0,-0.0224 0,-0.008 0.075,-0.0158 0.1942,-0.22117 0.2988,-0.35566 0.3063,-0.38256 z m -0.3736,0.40946 c 0,0.0158 0,0.0158 -0.075,0.0299 0,0.0597 0,0.0672 0,0.11581 0,-0.008 0,-0.0299 0,-0.0374 z m -0.075,0.0374 c -0.09,0.0597 -0.1046,0.0747 -0.1944,0.12691 0,0.0524 -0.075,0.12629 -0.09,0.17792 -0.127,0.15614 -0.2689,0.2817 -0.4034,0.41318 0.2764,-0.23534 0.4781,-0.41915 0.6575,-0.59474 0,-0.0672 0,-0.0597 0,-0.12332 z m -0.1944,0.12691 c 0,-0.0158 0,-0.0224 0,-0.0374 0,0.0224 -0.075,0.0597 -0.09,0.0852 0,-0.0158 0,-0.0298 0.075,-0.0449 z m -0.075,0.0449 c -2.441,1.50988 -2.0622,1.75426 -1.1043,1.08116 0.8039,-0.81331 0.7838,-0.76995 1.1043,-1.08116 z m -134.5202,1.54829 c -0.2541,0.14489 -0.6351,0.35713 -0.4633,0.28166 0.1794,-0.0814 0.2466,-0.12847 0.4035,-0.20472 0,-0.0224 0.075,-0.0524 0.075,-0.0777 z m 134.1646,0.20472 c -0.075,0.21441 -0.082,0.4296 -0.1196,0.64478 0,-0.0374 0.075,-0.1091 0.075,-0.13145 0.075,-0.16802 0.097,-0.68287 0.075,-0.51328 z m -136.1453,1.12359 c 0.075,-0.0374 -0.1196,0.0672 -0.1121,0.0597 -0.075,0.0299 -0.075,0.0449 -0.1046,0.0852 0.075,-0.0524 0.1496,-0.0957 0.2167,-0.14645 z m -0.2167,0.14645 c -0.075,0.0299 -0.09,0.0597 -0.1344,0.0889 -0.09,0.0822 -0.2765,0.23685 -0.2018,0.18147 0.2316,-0.17552 0.1868,-0.1502 0.3288,-0.27044 z m 0.845,-0.0889 c -0.1717,0.0448 -1.1618,0.47446 -1.9456,0.83787 -0.1718,0.11801 -0.3437,0.23312 -0.5155,0.34742 0.786,-0.33546 1.5697,-0.67393 2.3199,-1.08112 0.1643,-0.0881 0.1943,-0.11879 0.1419,-0.10378 z m -2.4589,1.18537 c -0.1793,0.0769 -0.3586,0.15835 -0.538,0.23537 -0.2764,0.23086 -0.5603,0.49985 -0.3735,0.38628 0.3138,-0.18978 0.6052,-0.41766 0.9115,-0.62165 z m 124.5732,1.4788 c 0,0.0158 0,0.0158 0,0.0299 0,-0.003 0,-0.0299 0,-0.0299 z m 0,0.0299 c 0,0.0224 -0.1121,0.13067 -0.1419,0.20846 0,0.0449 0,0.0956 -0.075,0.1427 0.075,-0.13145 0.097,-0.16587 0.1943,-0.35118 z m -127.3033,0.60222 c -0.1121,0.0672 -0.2242,0.1277 -0.3288,0.20472 -0.2914,0.2137 -0.8443,1.16206 -0.6052,0.89577 0.4483,-0.49237 0.7023,-0.81299 0.931,-1.10041 z m -45.3255,0.1277 c -0.4289,0.67395 -0.8832,1.331 -1.3244,1.99611 0.6985,-0.55065 1.7569,-2.67745 1.3244,-1.99611 z m 172.3158,0.003 c -0.075,0.14192 -0.09,0.28317 -0.142,0.42514 0,0.10753 0,0.0956 0,0.1427 0,-0.006 0.075,-0.008 0.075,-0.0158 0,-0.15458 0.075,-0.29886 0.082,-0.55214 z m 10.5947,0.0224 c 0.075,0.1166 0.075,0.0949 0.082,0.19651 -10e-4,-0.008 0,-0.0158 0,-0.0224 0,-0.0597 -0.1045,-0.23237 -0.082,-0.17418 z m -139.9558,0.74901 c -0.075,0.0299 -0.097,0.0597 -0.1494,0.0889 -0.082,0.0672 -0.157,0.14864 -0.1196,0.11582 0.1869,-0.1352 0.1419,-0.11129 0.269,-0.20474 z m 140.697,0.43263 c 0,0.0158 -0.075,0.0374 0,0.0374 v -0.008 c 0,-0.008 0,-0.0158 0,-0.0299 z m -0.1717,0.12332 c 0,0.003 0,0.0299 0,0.0299 0,-0.002 0,-0.006 0,-0.008 0,0.002 0,-0.0158 0,-0.0223 z m -0.075,0.0524 c 0,0.008 0,0.0224 -0.075,0.0374 0,0.0374 -0.075,0.0747 -0.09,0.10832 v 0.003 c 0,0.0374 -0.075,0.0747 -0.097,0.11207 0,0.0158 0,0.0224 0,0.0374 0.112,-0.10379 0.1494,-0.1524 0.2764,-0.26673 0,-0.008 0,-0.0224 0,-0.0299 z m -0.4259,0.57905 c -0.523,0.86775 0.1271,0.0747 0,0 z m -0.2017,0.10019 c -0.1495,0.10378 -0.411,0.33772 -0.7764,0.69111 0.075,0.0524 0.1345,0.11129 0.2018,0.16587 0.2615,-0.34521 0.4483,-0.62539 0.5753,-0.85717 z m -184.0537,0.0963 c -0.1344,0.1166 -0.2585,0.2436 -0.39,0.36315 -0.045,0.0761 -0.1046,0.14645 -0.1502,0.22413 -0.1345,0.22712 0.7419,-0.76085 0.5401,-0.58653 z m 185.3545,0.2548 c 0,0.003 0,0.008 0,0.0158 0,-0.003 10e-4,-0.008 0,-0.0158 z m 0,0.0158 c 0,0.18976 0.075,0.41841 0.075,0.67168 0,-0.002 0.082,0.0299 0.082,0.0299 0,-0.33921 10e-4,0.13973 0,-0.43634 -0.097,-0.15913 -0.075,-0.16961 -0.1196,-0.26224 z m -183.3161,0.0449 c 0,-0.0224 -0.075,0.0374 -0.075,0.0597 0.1084,0.25329 0.2421,0.49911 0.3706,0.74493 -0.052,-0.26299 -0.1083,-0.49164 -0.2974,-0.80703 z m 183.39,0.64106 c 0.1344,1.29932 0.1868,1.96496 0.075,0.0299 0,-0.0158 -0.075,-0.0158 -0.075,-0.0299 z m 1.7723,0.67543 c 0,0.006 0,0.0224 0,0.0299 0,-0.0158 0,-0.0158 0,-0.0299 z m 0,0.0299 c 0.1944,0.25032 0.2765,0.35566 0.4259,0.54843 0,-0.003 0.1271,0.0524 0.1271,0.0524 -0.2167,-0.26749 -0.411,-0.4752 -0.5604,-0.60221 z m 0.4857,0.62539 c 1.2911,1.66095 0.8704,0.9737 0.1718,0.0927 -0.075,-0.0374 -0.1196,-0.0597 -0.1718,-0.0927 z m -168.6478,0.94986 c -0.075,-0.0158 0.095,0.0799 0.1539,0.0964 0.1307,0.0374 0.2623,0.0672 0.3938,0.10003 -0.1815,-0.0672 -0.3639,-0.13895 -0.5484,-0.1973 z m 12.1854,0.42067 c -0.053,0.0299 -0.3511,0.0964 -0.5133,0.1696 -0.076,0.0223 0.1204,0.0158 0.1742,-0.008 0.1188,-0.0449 0.2286,-0.10534 0.34,-0.16208 z m 23.9191,2.75291 c -0.075,0.0299 -0.097,0.0524 -0.1495,0.0777 0,0.006 0.09,-0.0223 0.1272,-0.0524 0,-0.006 0,-0.0224 0,-0.0299 z m 138.2001,2.26264 c 0,-0.0158 0,0.0374 0,0.0374 0,-0.0158 0,-0.0224 0,-0.0374 z m 0,0.0374 c 0.075,0.12019 0.1344,0.2376 0.2017,0.35564 0,-0.0299 0,-0.0597 0,-0.0889 0,-0.10316 -0.1718,-0.28692 -0.1793,-0.26674 z m 474.3611,3.01553 c 1.6788,0 5.1516,1.74971 7.718,3.88809 4.5415,3.78568 4.5579,3.88654 0.5232,3.95378 -2.2773,0.0374 -5.7501,-1.71362 -7.719,-3.88809 -3.0185,-3.3381 -3.1015,-3.95378 -0.523,-3.95378 z m -655.8624,1.83788 c 0.3355,0.16664 0.6687,0.33473 1.0039,0.50211 0.5492,0.0747 0.6911,0.12098 0.7374,0.1621 -0.2099,-0.12035 -0.325,-0.18226 -0.5865,-0.32426 -0.1621,-0.10754 -0.16,-0.10832 -0.2241,-0.15099 -0.3108,-0.0597 -0.6232,-0.11503 -0.9305,-0.18899 z m 0.9847,0.201 c 0.3467,0.1965 1.0513,0.58578 1.5945,0.72176 0.6276,0.15913 2.5603,0.32127 1.9461,0.10831 -1.1462,-0.39748 -2.3472,-0.59623 -3.5406,-0.83018 z m 20.4291,2.15832 c -0.2197,0.0374 -0.2167,0.0299 -0.541,0.0964 0,0.003 0,0.0449 0.075,0.0449 0.1583,-0.0374 0.3116,-0.0911 0.467,-0.13895 z m 120.1762,8.22412 c 0,0.008 0.075,0.0374 0.082,0.0449 0.2317,0.0866 0.9699,0.1441 0.7248,0.0964 -0.269,-0.0524 -0.538,-0.0964 -0.8069,-0.13895 z m -1011.13891,6.35918 65.13262,0.74493 c 35.82186,0.41092 65.51868,1.09198 65.98186,1.50963 0.46621,0.41768 -1.3124,3.63348 -3.95369,7.14685 -36.48697,48.5408 -62.39802,105.71549 -70.10943,154.7018 -1.88135,11.94648 -3.71886,22.83439 -4.08496,24.19346 -0.94516,3.52303 -132.305718,3.6023 -134.481448,0.0814 -3.83437,-6.20378 3.50659,-48.14029 13.316986,-76.07094 12.17789,-34.66981 32.255822,-69.63061 56.545452,-98.46902 z m 677.32957,0.71054 c 37.6636,0.0769 75.11327,1.12375 75.85847,3.0657 0.588,1.53371 -0.3108,12.43115 -1.9962,24.21671 -5.1389,35.93088 -8.7995,74.74554 -11.1507,118.27635 -1.2336,22.82227 -2.6619,42.17098 -3.17,42.99698 -0.5103,0.82607 -17.10977,1.49014 -36.88877,1.48267 l -35.96207,-0.0158 -27.6762,-17.60655 c -15.2219,-9.68227 -33.55587,-21.84019 -40.74587,-27.01975 -7.1899,-5.17964 -14.8836,-10.08902 -17.0968,-10.90756 -5.8399,-2.16042 -6.0395,-3.14735 -4.174,-20.54476 3.7583,-35.05373 19.7488,-103.8434 25.85,-111.19519 1.6076,-1.93724 39.48837,-2.8298 77.15214,-2.75292 z m 1144.67394,0.0814 4.8229,4.529 c 13.5401,12.72054 42.5122,56.464 53.3752,80.58843 12.7465,28.30617 23.1726,67.63405 24.6572,92.99795 l 0.6349,10.87272 -70.7227,0.51778 c -55.5665,0.40795 -70.9043,-0.0158 -71.5694,-1.97684 -0.4631,-1.37292 -3.1417,-11.77493 -5.9495,-23.11628 -12.5316,-50.60721 -35.7735,-101.17274 -67.4839,-146.81743 -5.816,-8.37107 -9.8148,-15.68985 -8.8884,-16.26292 0.9265,-0.57232 33.0567,-1.10535 71.4027,-1.1853 z m -179.8761,0.13895 c 23.7509,-0.0792 22.5135,1.5313 43.1824,32.35197 20.0359,29.87828 41.1343,72.52863 51.2293,103.55798 9.2605,28.46388 14.3747,49.3738 12.7294,52.03572 -1.3233,2.14018 -145.7522,2.70234 -147.8787,0.57531 -0.7247,-0.72475 -1.3209,-2.58923 -1.3209,-4.14295 0,-1.55365 -1.7865,-5.33259 -3.969,-8.39783 -2.1831,-3.06531 -4.5449,-9.77425 -5.2472,-14.90762 -1.2014,-8.76402 -1.049,-9.20418 2.4864,-7.22024 2.5121,1.40974 3.7644,4.27812 3.7644,8.62176 0,8.11324 7.5694,12.60733 17.9467,10.66045 12.923,-2.42424 10.5942,-16.90383 -2.718,-16.90375 -3.7703,0 -4.4808,-0.72623 -3.3556,-3.45952 3.2262,-7.83559 3.2584,-10.60793 0.1718,-15.31694 -1.971,-3.00756 -5.1046,-4.94608 -7.9962,-4.94599 -4.935,0 -10.9698,4.60901 -10.9698,8.37853 0,5.46057 -2.6159,-1.70795 -7.8416,-21.48694 -6.5205,-24.68032 -15.1301,-49.6429 -23.7761,-68.9125 -4.9381,-10.96634 -5.8026,-15.03937 -4.8656,-22.51781 0.8756,-6.98979 0.1868,-10.96656 -2.9305,-16.96166 -2.2414,-4.30719 -4.0772,-8.53276 -4.0772,-9.39013 0,-0.85738 4.164,-1.55993 9.2514,-1.55993 8.0463,0 10.0747,0.90041 15.5874,6.9191 8.0663,8.80594 13.428,8.80594 21.4945,0 l 6.3359,-6.9191 h 30.919 c 4.5495,0 8.4534,-0.0449 11.8462,-0.0597 z m -1492.67266,0.0599 h 67.88153 c 37.33422,0 68.32823,0.71504 68.86612,1.59079 0.54093,0.8756 -3.74996,11.32827 -9.53307,23.22821 -13.73212,28.257 -23.93458,55.79394 -31.09323,83.90898 -6.4966,25.51371 -11.51365,55.67798 -11.51365,69.47235 0,6.53836 -0.91175,9.52379 -3.13914,10.37855 -1.71981,0.65975 -39.11,1.20077 -83.09024,1.20077 -71.88914,0 -80.08584,-0.32501 -81.19089,-3.20467 -1.99784,-5.20668 5.18687,-41.64071 12.62191,-64.00892 3.79476,-11.41646 11.2401,-29.68544 16.54856,-40.59925 10.23621,-21.04231 36.23158,-62.16831 47.12451,-74.55352 z m 656.03936,0 c 19.374,0 35.69977,0.76862 36.28247,1.71048 0.5821,0.94174 -1.5437,6.52236 -4.7258,12.39792 -3.183,5.87547 -9.89277,23.11718 -14.90767,38.31733 -9.873,29.9237 -12.6701,35.59077 -18.4869,37.43701 -2.086,0.66201 -4.8558,3.76497 -6.1506,6.89201 -2.7795,6.70945 -1.0507,10.96372 9.0232,22.23206 3.9257,4.3911 6.9928,10.2934 7.6952,14.82652 2.6629,17.12776 18.04797,38.21758 34.9003,47.84262 5.2885,3.02011 9.0223,6.08388 8.2975,6.80712 -2.0442,2.04424 -105.04167,1.56562 -106.31477,-0.49387 -1.2978,-2.09962 1.999,-68.52054 4.9151,-99.0096 3.7733,-39.46433 9.9956,-83.8404 12.116,-86.3955 1.599,-1.92572 10.90267,-2.56372 37.35597,-2.56372 z m -253.611,0.0597 c 16.28522,0.0672 32.30602,0.68964 32.99672,1.80703 0.6358,1.02832 -1.5091,10.83663 -4.7645,21.79573 -6.8479,23.05033 -15.30568,64.83837 -17.15858,84.77384 -0.70381,7.57364 -1.8579,14.70902 -2.56754,15.85743 -0.88414,1.43021 -4.32647,1.17437 -10.92304,-0.81083 -14.22381,-4.28087 -24.51359,-3.6691 -33.71119,1.99613 -9.66675,5.9537 -11.83575,6.07592 -18.23963,1.0387 -2.76442,-2.17468 -6.56675,-3.95376 -8.44811,-3.95376 -1.8812,0 -5.6835,1.77908 -8.44803,3.95376 -5.95625,4.68533 -4.6375,4.6978 -13.79182,-0.1352 -7.06945,-3.73171 -7.4132,-4.37672 -7.4132,-13.88059 0,-5.48194 0.93739,-11.72097 2.08494,-13.86512 3.09776,-5.78797 0.70905,-10.53382 -7.20094,-14.30526 -3.87741,-1.84918 -6.72826,-4.01371 -6.33984,-4.80705 0.39001,-0.79335 1.899,-3.80575 3.35141,-6.6951 2.29154,-4.55637 2.11247,-6.88713 -1.35139,-17.58339 -3.94347,-12.18311 -3.94661,-12.43863 -0.23164,-21.10462 4.14275,-9.66523 6.38707,-10.04943 11.31305,-1.93053 3.22252,5.31093 3.1703,5.51857 -2.62546,10.19709 -5.69713,4.59834 -5.80591,4.97909 -2.91132,10.27822 2.83242,5.18561 5.64789,6.51459 20.06225,9.47887 2.90123,0.59699 10.01459,6.06384 15.81103,12.14695 5.79718,6.08311 12.15518,11.92751 14.12766,12.98869 5.3991,2.90492 9.26268,-1.48969 9.26268,-10.53299 0,-6.01615 -1.81972,-10.1629 -8.14297,-18.53707 -4.47918,-5.93337 -8.7573,-10.78783 -9.50596,-10.78783 -0.74862,0 -2.89435,-1.11895 -4.76465,-2.48657 -3.09976,-2.26628 -2.25044,-4.22865 9.57556,-22.1664 7.13611,-10.82314 14.05694,-20.36494 15.37867,-21.20505 1.74283,-1.10729 18.29081,-1.59294 34.57592,-1.52511 z m -253.89672,9.82261 c 0.49462,0 4.21071,10.00788 8.25894,22.23978 9.27528,28.02491 9.25295,27.98629 24.67217,42.17838 17.58009,16.18118 29.81261,24.27722 48.43335,32.05468 8.69864,3.63307 19.2571,8.05114 23.4599,9.8187 l 7.64126,3.21632 -1.29747,9.98861 c -0.71352,5.49375 -2.57667,20.49239 -4.13898,33.33262 -1.56307,12.84024 -3.35731,24.18264 -3.99248,25.20513 -0.68514,1.10895 -31.84023,1.86104 -77.20214,1.86104 -70.20046,0 -76.15619,-0.26449 -77.36451,-3.4132 -0.72026,-1.87619 0.17179,-14.99767 1.98081,-29.1588 5.50503,-43.07805 17.01614,-81.32754 37.04327,-123.10659 6.38444,-13.31915 12.01283,-24.21667 12.50588,-24.21667 z m 131.15689,11.86122 c 8.01804,0 10.50214,0.7016 10.50214,2.96534 0,1.63091 -1.19346,2.96527 -2.65633,2.96527 -3.63563,0 -9.20491,6.46559 -9.20491,10.68743 0,1.90072 -2.5976,6.05376 -5.77601,9.23189 -5.66061,5.66072 -14.531,7.72739 -16.87695,3.93054 -2.26592,-3.66529 2.67703,-18.47655 8.03495,-24.06915 4.69067,-4.89556 6.9768,-5.71049 15.97705,-5.71049 z m 1117.43093,33.60683 c 3.4436,-8e-5 24.2119,60.42846 27.0078,78.58059 1.1775,7.64672 0.9182,8.40172 -2.8916,8.40172 -3.2196,0 -5.6613,3.08153 -10.5716,13.3439 -9.3702,19.57986 -17.8983,29.44408 -26.8352,31.043 -14.4919,2.59311 -27.1645,3.14317 -29.9426,1.29738 -1.7431,-1.15847 -3.1604,-6.4871 -3.6984,-13.89605 l -0.869,-12.01566 6.1582,1.23169 c 3.3861,0.67693 8.809,0.13066 12.051,-1.21242 6.6071,-2.73694 7.0607,-4.33617 9.0421,-31.97353 1.3823,-19.27424 0.5678,-21.78589 -11.2395,-34.72655 -11.7417,-12.86646 -9.9993,-16.35169 8.174,-16.35161 8.1635,-8e-5 10.2615,-0.85333 14.4949,-5.8843 2.7227,-3.23574 5.5417,-8.5733 6.2665,-11.86124 0.7248,-3.2878 2.0061,-5.977 2.8534,-5.97692 z m -433.6107,3.7761 v 0 c 0.4259,-0.0158 1.058,0.23686 1.9688,0.83009 0.3213,0.20771 0.6575,0.38628 0.9541,0.62165 0,0.006 0,0.0449 0.075,0.0524 0.8779,0.34071 1.7514,0.67694 2.3857,1.45174 0.1645,0.20323 -0.075,-0.0299 0.3736,0.29363 0.4259,0.33173 0.9198,0.59848 1.2627,1.01548 0.1718,0.2122 0.3661,0.5148 0.5454,0.8224 0.4782,0.41841 1.1043,1.16207 1.4869,1.66027 0.075,0.0814 -0.2092,-0.31455 -0.1718,-0.27047 -0.1344,-0.15161 -0.2839,-0.33173 -0.3736,-0.42514 -0.075,-0.0597 0.097,0.0672 0.2018,0.15835 -0.1196,-0.17712 0.2017,0.27573 -0.2467,-0.37431 0.1944,0.2219 0.4857,0.39599 0.6277,0.64106 0.2241,0.13302 0.4558,0.25927 0.5828,0.48267 0.097,0.17929 0.239,0.37209 0.3735,0.55963 0.6949,0.41317 1.3928,0.82561 2.1041,1.21234 0.9765,0.5305 1.9718,1.02435 2.958,1.53677 0.65,0.33099 1.2993,0.66124 1.9493,0.99223 -0.1419,0.0524 -0.4034,0.006 -0.4183,0.15458 0,0.1352 0.2689,-0.008 0.4034,-0.0223 0.2317,-0.0158 0.4558,-0.083 0.6874,-0.0597 1.776,0.19492 2.1892,0.27571 2.7069,0.73371 0.1496,0.0524 0.2989,0.1166 0.4409,0.18148 -0.075,-0.0866 0,-0.0299 0.1645,0.0672 0.075,0.0374 0.1643,0.0522 0.2391,0.10003 0.5305,0.33698 1.7237,1.2562 1.8492,1.60237 0,0.0224 0.075,0.0449 0.082,0.0672 0.075,0.0524 0.082,0.12394 0.1344,0.18148 0.5603,0.6545 0.9452,1.09301 1.4129,1.72587 2.1205,1.63986 4.1214,3.41813 6.1312,5.19316 0.4932,0.46996 0.9541,0.97354 1.4757,1.4093 0.5305,0.44008 1.123,0.79058 1.6639,1.21242 0.1944,0.14942 0.3436,0.34295 0.5305,0.49836 0.2018,0.16802 0.4557,0.27346 0.635,0.46698 0.097,0.10612 -0.3287,-0.20773 -0.4183,-0.11957 0.4259,0.16209 0.8899,0.25476 1.2821,0.49015 1.4884,0.89233 1.2665,1.00193 2.1892,1.89577 2.4282,2.35243 0.6501,0.48117 2.8915,2.93829 0.3587,0.39599 0.7099,0.8041 1.0857,1.18538 1.0355,1.04691 1.1671,0.93837 2.104,2.11581 0.075,0.0964 -0.2017,-0.14567 -0.3064,-0.20846 0,-0.003 0,0.0158 0,0.0299 0.075,0.0449 0.1196,0.0882 0.1869,0.13145 0.2689,0.26599 0.65,0.46923 0.9302,0.72998 0,0.008 0,0.0223 0.075,0.0298 0.8084,0.58278 1.5466,1.27466 2.3356,1.88419 0.4184,0.27123 0.9429,0.42365 1.2515,0.81464 0,0.0298 0,0.0374 0,0.0524 0,0.003 0.075,-0.006 0.09,0 1.5206,0.35491 1.9307,0.55963 2.4671,1.0772 0.1273,0.0874 0.2691,0.18898 0.3512,0.23909 0,0.008 -0.075,-0.002 -0.075,0.008 0.9661,0.60746 2.0308,1.11118 2.7107,2.06181 0.2391,0.17475 0.4931,0.33472 0.7098,0.54095 0.075,0.0597 -0.2167,-0.10237 -0.269,-0.0374 0.3437,0.15239 0.6874,0.30335 1.0266,0.45575 0.3064,0.19433 0.6202,0.38855 0.9272,0.5828 0.075,0.0448 0.075,0.0956 0.1196,0.13144 0.1196,0.0911 0.3213,0.1091 0.3885,0.24733 0,0.0299 -0.075,0.003 -0.097,-0.008 0.7024,0.21292 1.6856,-0.23612 2.0465,0.8224 0.6351,0.10675 1.25,0.27795 1.7872,0.70682 0.5529,0.24732 2.4829,1.11604 2.7571,1.59078 0.1045,0.17851 -0.7323,-0.38179 -0.5604,-0.26225 0.2466,0.17257 0.6127,0.38777 0.9541,0.59848 0.3811,0.16882 1.1514,0.52076 1.1813,0.64105 v 0.0224 c 0.2989,0.14864 0.5977,0.30186 0.8996,0.45203 -0.5081,-0.22788 -0.5828,-0.27346 -0.2391,-0.0927 0.4782,0.20994 0.9661,0.4057 1.436,0.63282 0.1046,0.0524 -0.2241,-0.0919 -0.3437,-0.10378 -0.075,-0.008 0.1345,0.0672 0.2018,0.0889 1.0139,0.35115 1.6878,0.5656 2.7032,1.11589 -0.4632,-0.15161 -0.075,-0.0299 0.2316,0.13895 0.3661,0.20994 0.7322,0.43335 1.0924,0.65227 0.075,0.008 0.1868,0.0158 0.2466,0.0223 0.4856,0.086 2.3535,0.52524 3.0768,1.25096 0.2764,0.0957 0.5529,0.20325 0.8338,0.28915 0.2466,0.13067 0.5081,0.24059 0.7494,0.39377 0.075,0.0299 -0.1046,-0.0224 -0.1494,-0.003 0,0.008 0,0.0449 0.075,0.0524 0.3063,0.10378 0.65,0.1277 0.9339,0.27796 0.2317,0.11957 -0.508,-0.12332 -0.7561,-0.18524 0.7913,0.35416 1.5825,0.70756 2.3745,1.0618 0.075,0.0597 -0.097,0.0158 -0.2242,-0.0373 0.142,0.0524 0.284,0.11425 0.4185,0.16586 0.075,0.0224 0.1569,0.0299 0.239,0.0374 0.157,-0.20998 0.3139,-0.31831 0.553,-0.23538 0.2166,0.0449 0.8569,0.36612 2.2355,1.03475 1.0923,0.52975 2.1503,1.12441 3.2509,1.63712 1.188,0.55289 2.4066,1.03684 3.6103,1.55597 1.2396,0.53495 2.2116,1.19447 2.9842,1.90354 4.0526,-1.46457 8.1456,-4.34125 13.2054,-9.12759 3.4399,-3.25359 7.107,-5.39011 8.15,-4.7453 2.1048,1.30029 6.2471,42.3257 6.9113,68.46464 l 0.4259,16.80343 -23.074,0.55589 c -12.7989,0.30859 -23.5775,-0.26749 -24.2126,-1.28961 -0.6276,-1.01374 4.1557,-7.68307 10.6255,-14.82269 12.1167,-13.3699 17.3043,-25.0583 15.0703,-33.95814 -0.6202,-2.47691 -5.2608,-8.13886 -10.3094,-12.58322 -1.6505,-1.45329 -2.7033,-2.41214 -3.7724,-3.39004 -1.0072,-0.39598 -2.0189,-0.7795 -3.0074,-1.2201 -1.2941,-0.57681 -2.5321,-1.276 -3.8075,-1.8919 -0.2989,-0.14567 -0.6052,-0.27796 -0.9146,-0.41319 -0.1344,0.0933 -0.2391,0.14786 -0.381,0.24733 -0.1643,0.11425 -0.3885,-0.12036 -0.5753,-0.189 -0.8376,-0.30635 -1.5295,-0.68591 -2.2049,-1.1351 -0.3064,-0.0933 -0.6127,-0.1793 -0.8996,-0.30931 -0.3512,-0.15776 -0.6799,-0.35193 -1.0191,-0.53647 -0.3363,-0.0822 -0.5903,-0.17258 -0.4857,-0.2548 0.1645,0.0755 0.3288,0.16665 0.4857,0.2548 0.3063,0.0747 0.6351,0.13004 0.969,0.16962 0,-0.0158 -0.075,-0.0299 -0.075,-0.0449 0.075,0.0374 0.075,0.0158 0.1046,0.0524 0.4707,0.0524 0.8421,0.0747 0.5828,-0.0298 -1.1267,-0.42065 -2.3394,-0.55738 -3.4937,-0.89577 -0.1046,-0.0299 -0.1718,-0.13301 -0.2541,-0.20472 0,-0.0224 -0.075,-0.0597 -0.112,-0.0889 -0.1794,-0.0224 -0.3512,-0.0299 -0.5305,-0.0597 -0.2092,-0.0374 -0.411,-0.14411 -0.6127,-0.21591 -1.2388,-0.49166 -1.4547,-0.62389 -1.9262,-1.01548 0,0.0299 0.075,0.0597 0.075,0.0814 0.075,0.20994 -0.4109,-0.17179 -0.6052,-0.28168 -0.1868,-0.10535 -0.3661,-0.2249 -0.5454,-0.33997 0,0.006 0,0.0158 0,0.0224 -0.2391,0.0449 -0.4483,-0.13739 -0.665,-0.25478 -1.3076,-0.41617 -0.523,-0.21892 -2.1242,-1.0039 -0.097,-0.0524 0.1793,0.13676 0.2615,0.20474 -1.5347,-0.6717 -0.1792,-0.0223 -2.0771,-1.1738 -0.2092,-0.12847 0.8361,0.53047 0.6127,0.42514 -0.4334,-0.2503 -0.8705,-0.50285 -1.3046,-0.75293 0.3362,0.23086 0.4035,0.24358 0.1419,0.15083 -0.5379,-0.39078 -1.0572,-0.81321 -1.6138,-1.17379 -0.269,-0.17554 1.0236,0.78334 0.7486,0.61418 -0.5305,-0.32501 -1.0034,-0.72401 -1.5093,-1.08108 0,-0.0224 -0.082,-0.0672 -0.1195,-0.0597 v 0.0747 c -0.1495,-0.0597 -0.2989,-0.12254 -0.4483,-0.18525 -0.1269,-0.0747 -0.2615,-0.13895 -0.3886,-0.21216 -0.3586,-0.0374 -0.7247,-0.083 -1.0534,-0.22792 -0.4035,-0.17851 -0.7502,-0.38179 -1.0506,-0.5753 -0.1419,-0.0524 -0.3063,-0.11582 -0.396,-0.15083 -0.8465,-0.33698 -1.5257,-0.6478 -2.2661,-1.14674 -0.7711,-0.52004 -1.2762,-1.02371 -0.8226,-0.58281 0,0.0223 0.09,0.083 0.075,0.0672 -1.3478,-0.63883 -0.8981,-0.47445 -2.3357,-1.57913 -0.2988,-0.22938 -0.2465,-0.0524 -0.6126,-0.43262 -0.1943,-0.20098 -0.3735,-0.41541 -0.5529,-0.62537 -0.09,-0.008 -0.3886,-0.25403 -0.523,-0.33995 -0.2093,-0.13145 -0.4109,-0.27573 -0.6201,-0.41693 -0.097,-0.0158 -0.1944,-0.008 -0.2914,-0.0374 -1.3338,-0.42437 -2.642,-1.33616 -3.83,-2.1082 -1.0931,-0.78795 -2.11,-1.67783 -3.1739,-2.50195 -0.4483,-0.45727 -0.8892,-0.93261 -1.3667,-1.36298 -0.3735,-0.33921 0.7024,0.73147 1.0536,1.09654 -0.3138,-0.22043 -0.6874,-0.46773 -0.9377,-0.73372 -0.4035,-0.42365 -0.7323,-0.91191 -1.1201,-1.34752 0,-0.0449 -0.1045,-0.0374 -0.1494,-0.0747 -0.2615,-0.22265 -0.523,-0.45353 -0.7606,-0.69861 -0.538,-0.54317 -1.0483,-1.11215 -1.5713,-1.66804 -0.1793,-0.23909 -0.3811,-0.45951 -0.5753,-0.67991 0.1717,0.4722 0.2839,0.88181 0.2839,1.1738 0,4.55134 -10.0621,-4.48598 -16.7686,-15.05822 -0.2242,-0.35786 -0.3736,-0.63956 -0.5604,-0.96137 -0.09,-0.0919 -0.1793,-0.19798 -0.2615,-0.29736 -2.6636,-0.38254 -2.559,-0.58054 -5.5215,-1.94988 -2.976,-1.54147 -3.0074,-1.50374 -5.683,-3.08116 -0.4333,-0.25478 -0.8921,-0.47445 -1.2784,-0.79536 -0.5304,-0.44305 -1.8178,-0.88478 -1.4629,-1.47877 0,-0.0224 0,-0.0374 0.075,-0.0597 -0.1271,-0.14052 -0.2167,-0.24805 -0.3362,-0.38628 -0.5529,-0.26749 -0.8443,-0.69635 -2.178,-2.0541 0,-0.0597 -0.075,-0.12551 -0.1046,-0.18523 -0.1793,-0.13895 -0.3586,-0.27795 -0.5305,-0.41693 -0.075,-0.0672 -0.1419,-0.14036 -0.2166,-0.20846 -0.2391,-0.0978 -0.4633,-0.18148 -0.5903,-0.24356 -0.075,-0.0672 -0.075,-0.0597 -0.1196,-0.12332 -0.254,-0.1352 -0.508,-0.26301 -0.8338,-0.4864 -0.2615,-0.17714 -0.5305,-0.33175 -0.7763,-0.529 -0.538,-0.43709 -2.3281,-3.24478 1.6101,1.01548 0.1794,0.0957 0.3512,0.18009 0.5007,0.23535 0,-0.0158 -0.09,-0.0449 -0.075,-0.0374 0,0.0158 0.075,0.0223 0.097,0.0449 0,0.008 0,0.008 0.075,0.0158 -0.1121,-0.10534 -0.2317,-0.20697 -0.3363,-0.32054 -0.112,-0.11957 0.1718,0.1427 0.3661,0.328 0.2018,0.0597 0.411,0.13144 0.5529,0.11957 -0.7172,-1.72185 -0.2391,-0.73596 0.1121,-0.0224 2.0442,-0.47819 -2.5747,-9.44731 -0.1046,-9.55235 z m 9.0385,6.74532 c -0.075,-0.0374 -0.1046,-0.0597 -0.1944,-0.11956 -6.6923,3.5154 -6.9449,1.87353 -5.5716,5.61785 2.9999,-4.61821 5.7704,-4.74814 6.2202,-4.98462 -0.2167,-0.10832 -0.411,-0.22415 -0.4857,-0.39375 -0.1046,-0.25852 0.254,0.0449 0.6052,0.32426 0,-0.0747 -0.1869,-0.20548 -0.538,-0.41692 v -0.003 -0.003 c 0,-0.002 0,-0.006 0,-0.008 0,-0.002 0,-0.008 0,-0.0158 z m 133.0527,-6.49822 c 9.0885,-0.0957 16.7006,3.55879 29.2328,13.51768 15.5874,12.38707 15.8392,12.81027 29.0617,48.56461 4.3993,11.89462 9.9306,23.68174 12.2901,26.19355 4.9597,5.27945 13.0358,5.92569 21.2165,1.69501 l 5.5559,-2.87651 1.2933,13.93461 c 0.7099,7.66427 2.2004,15.62179 3.3018,17.67985 6.1312,11.45695 32.0017,1.90437 28.8502,-10.65268 -1.7035,-6.78313 -19.814,-23.12018 -25.63,-23.1201 h -4.7646 l 4.5016,-12.88828 c 3.3174,-9.49338 7.4896,-16.13193 15.8422,-25.20513 6.2358,-6.77453 12.5097,-13.01052 13.942,-13.85743 1.4331,-0.84691 5.6987,-0.24806 9.4792,1.33213 5.6965,2.38 7.0891,4.16946 8.1157,10.43647 0.6801,4.15983 1.6185,9.78783 2.0816,12.50602 0.4633,2.71811 1.7612,19.05506 2.8842,36.30565 1.5174,23.3447 1.4584,32.0644 -0.2316,34.10109 -3.1845,3.83655 -163.5707,4.09581 -164.8177,0.26674 -0.4408,-1.35907 -1.7686,-16.25985 -2.9461,-33.11257 -1.1775,-16.85282 -3.1224,-37.60829 -4.3246,-46.12447 -2.0689,-14.6554 -1.9553,-15.79982 2.1586,-21.36327 3.4093,-4.6121 4.2245,-8.08992 3.7911,-16.14704 -0.538,-9.98591 -0.4035,-10.2857 5.1121,-10.92302 1.3777,-0.15913 2.7055,-0.2488 4.004,-0.26224 z m -121.5502,11.91919 c 0.3512,0.33176 0.7621,0.79647 1.7103,1.68725 -0.4483,-0.50882 -0.7905,-1.1427 -1.3516,-1.52512 -0.082,-0.0524 -0.2316,-0.10754 -0.3587,-0.1621 z m -17.0697,0.55216 c 0.8436,0.2899 2.0734,0.48117 1.5168,0.35117 -0.7024,-0.16428 -1.135,-0.25927 -1.5168,-0.35117 z m 18.5596,0.35491 c 0.2092,0.17929 0.4184,0.36236 0.6276,0.54095 0,0.0224 0,0.0158 0.075,0.0449 -0.2241,-0.19433 -0.9041,-0.77661 -0.6799,-0.58278 z m -6.977,5.18934 c -0.082,0.0299 0.5454,0.70607 1.0542,1.19308 0.1419,0.11957 0.2989,0.25329 0.4707,0.40572 0.075,0.0224 0.1196,0.0374 0.1718,0.0524 -0.075,-0.10987 -0.1494,-0.24579 -0.2017,-0.35117 -0.4184,-0.45425 -0.8637,-0.88559 -1.3673,-1.23945 -0.075,-0.0449 -0.1046,-0.0672 -0.1196,-0.0597 z m 1.5952,1.64482 c 0,0.0223 0.09,0.0449 0.1271,0.0597 0,-0.002 0,-0.006 0,-0.008 -0.075,-0.0223 -0.1046,-0.0449 -0.1271,-0.0524 z m 31.5213,16.80722 c -0.2465,0.0224 -0.9757,0.0785 -0.7322,0.0889 0.3363,0.0158 0.68,-0.0524 1.0162,-0.0597 -0.1046,-0.0158 -0.2167,-0.0299 -0.284,-0.0299 z m 9.4943,5.93838 c 0.2465,0.0374 0.5006,0.0777 0.7531,0.10832 0,-0.0158 -0.075,-0.0374 -0.09,-0.0449 -0.2092,-0.0761 -0.8839,-0.0978 -0.665,-0.0597 z m -12.6719,1.15057 c 0.6575,0.72101 0.8218,0.94023 1.2552,1.13905 -0.4184,-0.37956 -0.8368,-0.75964 -1.2552,-1.13905 z m 1.5137,1.4016 c -0.082,-0.0524 0.2914,0.23834 0.2242,0.17415 0,-0.0299 -0.075,-0.0597 -0.097,-0.0889 -0.075,-0.0299 -0.082,-0.0597 -0.1273,-0.0852 z m 0.8301,0.2899 c 0.075,0.0672 0.1196,0.13379 0.2018,0.189 -0.075,-0.0597 -0.1123,-0.12254 -0.1646,-0.18525 0,-7.3e-4 0,-0.003 0,-0.003 z m 6.4286,4.2897 c 0,-0.0224 0,0.0449 0.1494,0.22787 0.1046,0.0597 0.2092,0.10378 0.3213,0.15458 -0.2466,-0.19875 -0.4333,-0.35938 -0.4632,-0.38256 z m 2.6106,1.31275 c -0.1046,-0.0524 0.1718,0.15458 0.2839,0.1965 0.075,0.0158 0.075,0.0158 0.1495,0.0374 -0.142,-0.0799 -0.284,-0.16368 -0.4334,-0.23534 z m 21.942,3.0001 c -4.3769,4.35672 -5.343,1.83533 -2.695,5.8881 1.5712,-2.89892 2.2295,-4.6295 2.695,-5.8881 z m -10.216,2.16601 c -0.1496,-0.0597 0.7248,0.83752 0.9145,0.93442 0.09,0.0449 0.1868,0.0672 0.284,0.10832 -0.6576,-0.59849 -1.129,-1.01382 -1.197,-1.04253 z m 2.4283,1.52513 c 0.075,0.0224 0.127,0.0524 0.1868,0.0747 0.2092,0.0597 0.8607,0.0524 0.6425,0.0224 -0.2764,-0.0374 -0.5529,-0.0672 -0.8338,-0.0963 z m 3.1433,1.71049 c 0,-0.006 0.075,0.0224 0.1271,0.0524 0,-0.008 0,-0.0158 0,-0.0224 -0.075,-0.0158 -0.075,-0.0158 -0.09,-0.0299 z m -762.56306,7.89206 c 3.03107,0 21.96916,10.04597 28.91546,15.34002 4.12135,3.14078 6.42488,6.60769 6.42488,9.66814 0,2.62405 1.33434,7.9656 2.96525,11.86893 4.6945,11.23444 3.83318,13.96799 -6.42486,20.40967 -8.28955,5.20571 -11.17286,5.90462 -24.59499,5.93443 -8.36219,0.0223 -15.57142,-0.62837 -16.02735,-1.44398 -2.32358,-4.17686 5.82768,-61.77729 8.74161,-61.77721 z m 999.32356,0.39749 c 1.3816,-0.19511 4.4375,2.17445 9.9269,7.27422 6.7589,6.27769 8.6335,9.67981 10.6068,19.25135 3.0297,14.69918 6.8126,22.26723 14.0504,28.09323 3.1471,2.53334 5.219,5.42455 4.5988,6.42486 -1.339,2.16602 -33.8631,2.47648 -35.175,0.33624 -0.5007,-0.81547 -1.4951,-12.60266 -2.2123,-26.19357 -0.7173,-13.59105 -1.7717,-27.15739 -2.332,-30.14732 -0.5977,-3.18157 -0.538,-4.88675 0.538,-5.03872 z m -489.0166,50.82725 c 1.9725,-0.0449 3.9211,0.21367 5.6754,0.87641 5.7061,2.15386 8.5177,6.17166 6.5489,9.35929 -1.2731,2.05804 -23.2629,2.47871 -25.2594,0.48265 -4.5016,-4.50165 4.486,-10.51634 13.0351,-10.71835 z m -14.1745,23.72625 13.9966,0.57906 13.9929,0.57906 3.2158,7.94615 c 1.7678,4.37151 6.0237,12.82274 9.4599,18.78027 3.4362,5.95757 7.2071,14.39254 8.3787,18.74163 1.1708,4.34902 3.9204,10.81872 6.108,14.37866 5.1629,8.40678 5.0158,15.77858 -0.6126,30.7496 -7.066,18.7931 -11.2277,32.14778 -11.2277,36.03159 0,1.94197 2.7585,12.05176 6.1313,22.4676 9.8894,30.53085 11.4951,36.39034 10.4446,38.08952 -1.658,2.63743 -55.6466,1.97709 -57.3023,-0.70305 -1.8022,-2.91591 -3.9398,-105.82243 -3.1665,-152.46623 z m 539.5048,0.0158 v 6.50204 c 0,6.74121 9.7962,29.59136 15.29,35.67253 1.726,1.91018 4.1274,5.46854 5.3364,7.90744 2.5245,5.09507 12.4012,6.92874 18.8187,3.49428 3.6416,-1.94913 4.0421,-1.59379 4.0421,3.55223 0,4.62957 2.0816,7.27199 10.9542,13.90756 6.0251,4.5057 12.2019,8.19324 13.7261,8.19324 3.0619,0 15.872,-6.936 21.2824,-11.52148 1.9021,-1.61269 3.4593,-5.36322 3.4593,-8.33603 0,-10.10212 -5.1077,-13.22631 -23.9078,-14.62194 -13.966,-1.03683 -17.441,-0.72176 -19.5175,1.77997 -4.5674,5.5034 -5.6268,3.22971 -5.3131,-11.42494 0.2765,-12.87626 -0.3137,-15.40847 -5.3279,-22.98882 -6.832,-10.33127 -5.3894,-11.88589 11.0693,-11.93071 12.1249,-0.0299 13.0537,0.54095 8.4017,5.19308 -1.631,1.63092 -2.9655,5.12412 -2.9655,7.76467 0,4.92195 6.1843,12.71068 10.0935,12.71068 1.2014,0 4.8319,2.22392 8.062,4.94219 3.2307,2.71811 7.3579,4.96663 9.1772,5.00391 1.8195,0.0373 5.036,1.36903 7.1467,2.96528 2.1108,1.59638 6.6236,2.90353 10.0277,2.90353 5.0875,0 7.1571,1.475 11.614,8.28202 6.6347,10.13334 6.965,18.26266 1.4173,34.65318 -2.2893,6.76125 -4.1624,14.14876 -4.1624,16.41729 0,2.26853 -1.6699,7.85597 -3.7104,12.41726 -2.0405,4.56127 -5.4805,12.36331 -7.6451,17.34011 -4.3978,10.1121 -13.496,16.53593 -32.0121,22.59497 -5.9132,1.93493 -12.7967,5.56481 -15.2975,8.06579 -3.8913,3.88914 -4.3694,5.84843 -3.3167,13.52922 0.8153,5.95107 0.3886,9.98994 -1.2552,11.97321 -2.1182,2.54649 -11.1097,2.99232 -60.441,2.99232 -31.8772,0 -58.4178,-0.74344 -58.9782,-1.65249 -0.5604,-0.90887 1.6326,-8.17803 4.8767,-16.15096 18.4594,-45.36061 31.4324,-106.84151 33.9931,-161.1034 l 0.4631,-9.88431 17.2976,-0.57157 z m 180.405,0.0964 57.5689,0.52151 57.5721,0.52526 -0.6501,15.81491 c -0.8854,21.60432 -6.9456,50.6516 -15.3744,73.69256 -3.8681,10.57014 -7.5553,20.96101 -8.1971,23.08923 -0.6425,2.12825 -3.0148,6.68646 -5.2743,10.13148 -2.2617,3.44511 -5.118,7.93159 -6.3478,9.96925 -1.7842,2.95548 -2.5366,-1.22332 -3.7224,-20.66058 -1.413,-23.17133 -1.7118,-24.45152 -6.1618,-26.14341 -7.9372,-3.01771 -13.1815,0.69711 -19.433,13.77636 -6.8807,14.39575 -10.1084,14.84435 -16.1544,2.2433 -8.8562,-18.45779 -20.3117,-20.75017 -40.0204,-8.01171 -6.729,4.34902 -12.8863,7.90747 -13.6798,7.90747 -0.7928,0 -5.9505,3.03632 -11.4638,6.74914 -5.5133,3.7128 -15.9863,9.45647 -23.2741,12.76086 l -13.2517,6.00781 1.3211,-7.32446 c 0.7246,-4.02719 2.2369,-9.08445 3.3546,-11.23957 2.9065,-5.6038 9.1999,-30.72122 9.2747,-36.80761 0,-2.82818 2.3452,-9.48771 5.1696,-14.79953 9.7079,-18.25771 15.0568,-34.88816 15.0508,-46.77695 0,-10.6423 0.2914,-11.36705 4.6795,-11.36699 4.0959,0 4.5464,0.70534 3.5602,5.63713 -0.9064,4.532 -0.075,6.47194 4.2701,9.88439 2.9684,2.33512 6.4436,4.24717 7.7219,4.24717 4.0727,0 11.099,-8.00647 12.302,-14.01954 z m -1724.341548,0.0582 h 67.993708 67.99349 l 1.37844,18.28602 c 4.2424,56.27892 23.43129,109.19122 58.25585,160.62082 2.20856,3.26183 4.03103,6.59776 4.03103,7.41322 h 0.0374 c 0,0.81538 -29.79169,1.48267 -66.22123,1.48267 h -66.23587 l -9.81877,-13.34391 c -19.69458,-26.76415 -37.105442,-62.44116 -46.661078,-95.60411 -5.1345,-17.82217 -10.5974,-53.43545 -10.67211,-69.46457 z m 150.242198,0 h 82.77 82.76986 l 1.22783,7.4132 c 0.67318,4.0772 1.23812,12.7508 1.31283,19.27452 0.0522,6.52358 1.46884,18.97805 3.15056,27.67624 1.68111,8.69817 3.79895,20.50128 4.70676,26.22822 0.90774,5.72693 3.4265,15.95725 5.5985,22.73402 2.17193,6.77677 5.44348,17.21354 7.27027,23.19354 3.35164,10.96762 8.64888,24.09252 19.03537,47.17078 3.11336,6.91759 5.66013,12.92248 5.66013,13.34383 0,0.4214 -33.14741,0.76838 -73.66155,0.76838 H 286.1933 l -9.11989,-12.5794 C 260.42815,739.2554 238.73214,696.55596 232.23854,673.9662 223.81591,644.66428 220.01435,622.77934 220.01435,603.56721 Z m 179.89535,0 h 78.08642 78.08641 v 14.61796 c 0,46.12092 11.69439,103.56769 31.12798,152.92181 l 8.01564,20.26296 h -74.00917 -74.00912 l -7.91121,-17.29792 c -4.3515,-9.51362 -8.73188,-19.07688 -9.7339,-21.25133 -4.84538,-10.51627 -18.30701,-48.77996 -20.86529,-59.30615 -4.02215,-16.55335 -8.63582,-56.3367 -8.71053,-74.62689 z m 168.03405,0 h 13.90772 c 13.63723,0 13.86557,0.0806 11.62558,4.26646 -3.20272,5.9853 -1.00488,21.20533 4.71832,32.64538 2.6263,5.24934 7.25534,17.55088 10.28593,27.3364 3.61708,11.68045 8.08991,21.18706 13.02343,27.67624 11.52494,15.15823 31.6052,34.07814 39.76137,37.46399 15.04042,6.24384 20.13404,18.76972 17.99641,44.25953 l -1.18528,14.15473 H 643.64007 609.20313 L 602.6239,760.45517 C 582.51105,716.623 567.95352,648.98399 567.94763,599.33986 Z m 293.59251,0 v 0 h 30.63757 v 20.26286 c 0.045,31.40922 3.4826,85.71929 8.0194,126.66269 2.2684,20.46615 3.6401,38.48033 3.0426,40.03162 h 0.03 c -0.7643,1.99163 -3.8585,2.69307 -10.533,2.38225 -5.1988,-0.24208 -23.46327,-0.7098 -40.58757,-1.03864 l -31.13567,-0.59844 v -6.93443 c 0,-3.81275 1.2029,-9.81556 2.6757,-13.34008 2.2774,-5.44966 4.27257,-6.80548 13.34387,-9.07738 14.1803,-3.55156 17.5987,-6.80441 17.5987,-16.81879 0,-4.45236 0.9406,-13.78474 2.0696,-20.74174 1.6752,-10.32445 3.466,-14.25347 9.7414,-21.38263 11.5967,-13.17483 19.72227,-41.96948 15.82667,-56.07831 -2.62247,-9.49817 -12.71147,-18.45399 -25.44847,-22.58342 -9.8618,-3.19742 -25.9231,-14.96988 -25.9231,-19.00036 0,-0.96072 13.7869,-1.74508 30.6375,-1.74516 z m 42.47957,0 h 79.07487 79.0749 l 0.1496,32.1241 c 0.5603,117.83754 0.3437,153.26985 -0.9228,155.32343 v 0 c -1.0625,1.71863 -19.8217,2.33203 -71.43353,2.33211 -64.67884,0 -70.12324,-0.26299 -71.73094,-3.45958 -5.2287,-10.39582 -14.1263,-117.90853 -14.2011,-170.99931 z m 425.17437,0 h 29.8881 29.885 l -1.3127,32.1241 c -0.7247,17.66818 -2.6823,44.13369 -4.3515,58.81196 -3.797,33.39725 -16.0206,95.21252 -19.2319,97.25279 -1.3233,0.84104 -11.1105,1.54493 -21.7456,1.55987 -15.9019,0.0224 -19.5487,-0.53199 -20.5448,-3.12749 -1.3545,-3.53176 3.691,-16.83323 16.4594,-43.3908 11.687,-24.30897 11.4928,-39.79662 -0.5978,-47.74601 -3.8763,-2.54849 -4.8625,-2.2604 -11.135,3.24709 -3.821,3.35478 -9.1199,6.04263 -11.915,6.04263 -6.9845,0 -11.2478,4.96043 -11.2478,13.08903 0,7.43435 -3.8106,16.29722 -8.7799,20.42129 -4.3964,3.64859 -13.3795,34.39783 -12.6144,43.17455 l 0.6351,7.33214 -14.3591,0.57905 c -16.9374,0.6859 -18.1127,-0.5895 -13.3787,-14.53307 3.6873,-10.86117 7.7556,-16.92695 22.2088,-33.12427 14.764,-16.54675 16.513,-23.59722 13.3861,-53.93536 -1.356,-13.15188 -3.0962,-26.77455 -3.8651,-30.27464 -1.3068,-5.95027 -0.4856,-7.2608 12.5987,-20.13942 7.6966,-7.57558 17.5987,-19.08003 22.0048,-25.56804 z m 71.0165,0 h 83.3334 83.3342 l -1.2514,23.22822 c -1.563,29.04748 -7.5951,64.98202 -16.1351,96.11762 -7.2273,26.34993 -18.5767,57.87592 -23.5917,65.53018 l -3.212,4.90362 h -71.0053 c -39.0527,-8e-5 -71.4677,-0.74416 -72.028,-1.65257 -0.5605,-0.9087 1.5451,-14.03017 4.6795,-29.15883 9.4874,-45.80279 15.8764,-102.7449 15.8764,-141.46599 z m 522.3609,0 h 69.2562 69.2561 l -1.1851,19.45204 c -3.4758,57.04992 -27.2401,119.07215 -62.0437,161.92589 l -6.8223,8.40171 h -58.187 -58.1862 v -16.84203 c 0,-14.86499 0.6202,-17.82472 5.2937,-25.20513 21.0836,-33.30066 37.5861,-85.51352 41.221,-130.43489 z m -91.889,12.01561 c -4.6213,0.0597 -9.2717,0.65449 -13.63,1.86492 -8.5258,2.36812 -11.1289,5.10663 -12.7996,13.45971 -1.0454,5.2246 -0.2765,7.10939 4.8648,11.91142 3.3592,3.13734 9.1952,7.16672 12.9692,8.95768 3.7739,1.79096 7.409,4.97834 8.074,7.08124 1.3768,4.33886 16.1722,15.87679 20.3594,15.87679 1.5175,0 5.0194,1.77912 7.7839,3.9537 7.3207,5.75829 25.2101,5.61723 28.3361,-0.22416 4.7909,-8.95118 -3.386,-33.40698 -13.4592,-40.25172 -3.7762,-2.56616 -8.4663,-7.29795 -10.4214,-10.51375 -4.6221,-7.59962 -18.2152,-12.28918 -32.0772,-12.11608 z m -40.3021,21.59116 c -5.2586,0 -8.0949,6.7536 -4.5988,10.96545 1.3097,1.57875 3.5408,2.87261 4.9611,2.87269 2.7563,0 8.7956,-5.2546 8.7956,-7.65267 0,-2.90176 -4.8611,-6.18547 -9.1579,-6.18547 z m -21.07,23.73014 c -3.301,-0.13004 -7.2154,1.70608 -10.9155,5.92293 -2.8623,3.26173 -6.3606,5.93061 -7.772,5.93061 -1.4121,0 -3.5788,2.22073 -4.8154,4.93449 -1.8575,4.07698 -1.6258,5.62235 1.3359,8.89588 2.5403,2.80644 6.0932,3.96147 12.1782,3.96147 10.2367,0 15.6783,-4.49776 17.5559,-14.50993 1.7335,-9.23875 -2.0658,-14.91831 -7.5671,-15.13545 z M 216.07992,786.64846 h 65.02046 l 26.29398,23.97732 c 53.22811,48.54276 111.74561,95.23392 161.65549,128.97927 l 20.8074,14.06588 -10.87282,1.29735 c -5.9802,0.71357 -29.10921,1.36404 -51.39867,1.44407 l -40.52588,0.14645 -33.60676,-17.32859 c -62.68995,-32.3271 -100.21636,-56.3934 -145.28067,-93.16003 -23.64931,-19.29412 -59.77252,-55.12081 -58.17873,-57.69988 0.58651,-0.94869 30.32401,-1.72208 66.0862,-1.72208 z m 155.55111,0.0449 c 34.48213,-0.0672 69.34329,0.39675 70.8469,1.46721 1.12171,0.7988 7.70903,9.01326 14.64129,18.25523 33.84056,45.11849 77.82708,92.34376 117.74347,126.41552 11.95987,10.20893 22.03977,19.30134 22.40589,20.20489 0.36236,0.90364 -18.31851,1.58883 -41.51429,1.52914 l -42.17456,-0.11598 -12.84967,-8.17386 C 480.64562,933.49819 430.40734,898.04576 410.78234,882.7993 367.17495,848.92084 303.04285,792.75372 303.04285,788.44235 c 0,-1.07373 34.10581,-1.6785 68.58818,-1.74911 z m 129.92531,0.23162 c 22.9845,-0.0223 51.30202,0.45727 73.2678,1.44405 l 27.64141,1.24327 10.66442,19.76869 c 19.80724,36.70895 55.0644,85.32514 87.68119,120.90954 7.81003,8.52112 15.95891,17.49616 18.10834,19.94248 l 3.91122,4.44803 h -51.37928 -51.37926 l -21.49472,-17.22428 c -26.41734,-21.16395 -66.57013,-59.84084 -90.88587,-87.54985 -25.1472,-28.65587 -48.7439,-59.24815 -47.39073,-61.43748 0.62164,-1.00628 18.27101,-1.52452 41.25548,-1.54448 z m 146.27686,1.69891 h 30.46793 l 1.35117,8.40169 c 3.09243,19.25578 11.64058,38.22634 29.08177,64.53397 22.43515,33.84094 22.89355,34.78652 23.85365,49.17851 0.4558,6.8312 2.2792,14.33041 4.2009,17.26287 4.0227,6.13977 18.3289,12.70847 30.9426,14.20885 17.92687,2.13234 20.70787,-12.62047 5.9229,-31.41368 -9.8147,-12.47639 -15.0606,-50.56987 -8.6411,-62.75027 4.9918,-9.47173 8.0413,-9.67378 11.73387,-0.78388 8.6133,20.73622 25.4005,55.77884 38.0431,79.41462 7.7557,14.49843 14.10067,26.73008 14.10067,27.18213 0,0.45122 -19.93297,0.82226 -44.29417,0.82234 h -44.29037 l -21.19348,-22.2398 c -27.25355,-28.59925 -50.41086,-57.46635 -70.96676,-88.46494 -17.40893,-26.25322 -30.78046,-49.30955 -30.78046,-53.07438 0,-1.62507 8.76529,-2.27809 30.46778,-2.27802 z m 171.60169,0 h 43.96617 43.96207 l 3.4829,20.26291 c 6.764,39.33804 21.2907,102.13257 30.39047,131.36921 2.0996,6.74424 3.3351,12.74911 2.7376,13.34389 -0.5948,0.59546 -23.54257,1.08106 -50.99327,1.08114 h -49.90827 l -9.8265,-18.28605 C 818.77879,909.46721 800.89979,873.2468 791.50779,851.83352 l -8.259,-18.83423 16.8614,-17.28616 c 9.2747,-9.50705 17.4171,-19.48902 18.0969,-22.18567 z m 256.56441,0 h 29.6535 29.6527 v 8.95768 c 0,12.9816 4.0084,20.69567 15.931,30.66074 10.538,8.80809 10.5605,8.81343 24.9351,8.37862 10.9743,-0.33176 16.7896,-1.65333 24.5294,-5.5754 l 10.1465,-5.14294 -1.3434,12.49829 c -4.3694,40.63051 -14.7438,92.68435 -21.8964,109.85532 l -2.6793,6.42484 h -53.1436 c -29.232,0 -53.7398,-0.59545 -54.4645,-1.32045 -0.7248,-0.72485 -1.321,-38.0877 -1.321,-83.02865 z m 170.4671,0 h 26.3674 c 16.2276,0 28.3593,0.90615 31.549,2.35909 4.016,1.83003 6.0319,1.83003 8.9615,0 2.3415,-1.46192 12.1541,-2.35909 25.7726,-2.35909 h 21.9928 l -1.2821,6.83796 c -4.2595,22.70645 -32.3253,95.6843 -52.1095,135.49677 l -11.2971,22.73409 -49.1515,0.52898 c -39.9755,0.43037 -48.9669,0.0452 -48.1555,-2.07339 9.3083,-24.25606 23.1741,-100.0601 23.1741,-126.6897 0,-9.00391 0.6873,-10.43628 8.6372,-17.87678 4.7513,-4.44803 10.1913,-10.53158 12.0891,-13.52149 z m 128.2807,0 h 71.0477 c 52.8185,0 71.0471,0.59025 71.0471,2.30499 0,3.51196 -18.192,36.79853 -30.7495,56.2636 -20.7854,32.22042 -44.0356,61.32871 -72.8313,91.17931 l -15.73,16.30925 h -43.1436 c -23.727,0 -43.1398,-0.75594 -43.1398,-1.67961 0,-0.92359 5.2317,-12.7108 11.6251,-26.19342 19.1566,-40.39769 33.8265,-78.41764 46.6501,-120.88654 z m 496.2871,0 h 54.1977 c 29.8088,0 54.1978,0.77196 54.1978,1.71817 0,4.65288 -67.7954,67.54993 -70.2096,65.13629 -0.4929,-0.49006 0,-3.93893 1.0507,-7.66039 3.472,-12.10896 -4.196,-25.68177 -12.6726,-22.42893 -4.3873,1.68346 -13.0582,18.09621 -13.0582,24.71859 0,6.92688 7.4985,12.58811 14.2356,10.74529 3.8076,-1.04147 3.4228,-0.24503 -2.3744,4.91523 -3.8054,3.3875 -8.4556,7.00854 -10.3364,8.04648 -2.9939,1.65272 -3.2732,1.14234 -2.2272,-4.08889 2.5688,-12.84517 -7.1593,-15.26326 -24.7461,-6.15054 -6.1177,3.16997 -14.7819,6.72868 -19.2552,7.90738 -15.7084,4.1382 -23.2659,14.14644 -16.7529,22.18961 3.605,4.45196 14.2529,5.67537 23.9616,2.74901 4.3253,-1.30366 4.5413,-1.14069 1.9112,1.46725 -4.9432,4.90272 -42.6286,26.39563 -75.492,43.0511 l -31.0152,15.71846 -41.1406,-0.31307 c -22.6279,-0.17128 -45.5911,-0.85802 -51.0275,-1.52514 l -9.8842,-1.21243 7.9073,-4.86493 c 17.5448,-10.79257 61.9712,-40.66057 78.2369,-52.59947 15.964,-11.71742 17.7025,-12.51929 22.4171,-10.37092 3.8077,1.735 6.348,1.76528 9.9583,0.11957 5.6709,-2.58371 11.7081,-13.16338 10.3901,-18.20491 -1.3472,-5.15107 0.075,-6.53656 16.7842,-16.398 8.3704,-4.93833 20.3864,-13.27472 26.7029,-18.52552 6.3172,-5.25074 19.3157,-13.93607 28.8884,-19.30145 10.4238,-5.84283 19.8005,-12.78026 23.3786,-17.29769 z m -254.561,0.2316 c 22.4135,-0.0224 22.5659,0.72101 21.0469,3.55994 -2.7458,5.12809 -2.63,19.13488 0.2018,24.42517 1.247,2.32986 4.0302,5.66318 6.1812,7.40549 3.806,3.08143 3.4908,3.67546 -11.5138,21.82669 -20.0052,24.20128 -61.159,65.29242 -89.6193,89.48045 l -22.506,19.12781 h -52.4256 -52.4263 l 3.7651,-4.44803 c 2.071,-2.44632 9.1057,-10.2675 15.6291,-17.37865 33.4894,-36.50497 63.7757,-79.62841 87.5422,-124.64329 l 9.8229,-18.59877 53.7077,-0.52898 c 13.1801,-0.12926 23.1239,-0.21968 30.5948,-0.22789 z m -654.1706,0.15837 c 8.717,-0.0224 18.5255,0 29.18577,0.0777 l 71.66123,0.52152 0.5155,82.53437 0.5156,82.53444 h -53.3065 -53.3021 l -2.1815,-7.41331 C 943.79,907.80833 919.82223,802.09959 919.82223,790.39302 c 0,-0.81081 16.32447,-1.30998 42.47587,-1.37842 z m 756.5433,27.67234 c 4.7879,-0.0373 8.0133,0.76126 10.452,2.35914 7.7236,5.0608 14.4233,16.72885 17.722,30.86167 3.4893,14.94943 6.8702,10.47933 -27.5485,36.44082 -24.2987,18.32769 -50.7587,35.96621 -83.0168,55.34079 v 0 l -21.6295,12.9925 -37.6265,-0.0745 -37.6228,-0.0777 13.8382,-12.12763 c 24.4726,-21.44653 78.8573,-77.09303 94.6896,-96.88983 13.3474,-16.69055 16.318,-19.36496 22.61,-20.34794 3.9845,-0.6224 13.1127,-2.45407 20.2863,-4.06954 12.9528,-2.91731 21.6901,-4.36085 27.846,-4.41322 z M 510.96195,966.49604 534.01638,979.7395 c 29.13497,16.7383 75.79126,39.2022 104.57732,50.3522 12.21761,4.7325 22.23978,9.5383 22.23978,10.6797 0.0224,1.1417 -1.04223,3.1433 -2.34752,4.4481 -2.64427,2.6443 -3.92626,2.693 -12.45589,0.4707 -3.26205,-0.8497 -11.26837,-2.6291 -17.79184,-3.9576 -40.66581,-8.2809 -198.40538,-62.2719 -206.97684,-70.843 -0.99894,-0.9992 17.69334,-2.302 43.98157,-3.06565 z m 65.98578,0.0452 h 39.1399 l 24.85753,16.45976 c 13.67161,9.0535 33.30044,21.2544 43.62242,27.1125 l 18.76861,10.6488 -6.90737,1.7337 c -3.79859,0.9538 -10.49482,2.9901 -14.88068,4.5213 -4.38509,1.5312 -8.83385,2.772 -9.88437,2.7645 -9.53979,-0.093 -125.87904,-53.6297 -131.64714,-60.5802 -1.83895,-2.21532 4.35184,-2.66036 36.9311,-2.66036 z m 111.2569,0 h 47.11679 l 23.1278,21.05836 c 12.719,11.58347 22.80597,22.0177 22.41747,23.1857 -0.3892,1.168 -4.6456,3.2869 -9.45567,4.7067 -4.8104,1.4199 -17.1963,2.977 -27.5259,3.4634 l -18.7802,0.8841 -25.17033,-14.394 c -31.0738,-17.7716 -58.84671,-35.4284 -58.84671,-37.41382 0,-0.81948 21.20295,-1.49044 47.11675,-1.49044 z m 107.88246,0 h 40.33667 l 5.1313,8.75316 c 2.8213,4.8145 5.1274,9.59 5.1274,10.614 0,1.024 -5.5599,2.9418 -12.3554,4.2627 -6.7954,1.3208 -17.76157,4.5516 -24.37107,7.1777 -6.6087,2.62607 -13.2806,4.7561 -14.8265,4.7337 -3.2099,-0.045 -39.38307,-31.0584 -39.38307,-33.7651 0,-0.99454 17.777,-1.77616 40.34067,-1.77616 z m 104.67774,0 h 48.15137 l 7.1006,21.10856 c 3.9053,11.60977 6.7178,21.7306 6.2471,22.4907 -0.47,0.7601 -4.8229,2.3814 -9.6719,3.6024 -10.804,2.7206 -25.84077,2.627 -33.64927,-0.2085 -3.2048,-1.1636 -12.347,-6.3724 -20.3172,-11.5754 -8.758,-5.7173 -18.77027,-10.4181 -25.30547,-11.8807 -9.6333,-2.1558 -11.354,-3.3418 -15.7608,-10.8611 -2.7204,-4.642 -4.9462,-9.3908 -4.9462,-10.5562 0,-1.44971 15.2145,-2.11976 48.15177,-2.11976 z m 113.04437,0 v 0 h 50.4992 l -0.5902,11.36706 -0.5903,11.367 -20.7569,1.2394 c -16.1588,0.9671 -25.6132,2.8284 -42.68813,8.40167 -12.0629,3.93763 -22.53477,7.16233 -23.27457,7.16233 -0.739,0 -2.1955,-2.2412 -3.2356,-4.9769 -4.1294,-10.8622 -9.8726,-29.4308 -9.8726,-31.9234 0,-2.13136 9.7088,-2.63716 50.5026,-2.63716 z m 180.6635,0 h 46.5267 c 25.5896,0 46.5027,0.66727 46.5027,1.48268 0,0.81538 -2.9909,6.82018 -6.6184,13.34388 l -6.5945,11.8613 -26.4944,0.2705 c -33.2697,0.3392 -61.0905,-2.8805 -61.0905,-7.0659 0,-0.9764 1.7484,-5.8512 3.8846,-10.8342 z m 208.1668,0 h 49.194 c 27.0562,0 49.1939,0.70386 49.1939,1.56766 0,0.8636 -7.7115,7.284 -17.1398,14.2667 l -17.143,12.6951 -32.7728,4.45957 c -18.0262,2.45163 -34.1111,4.38723 -35.7422,4.30123 -9.7594,-0.5147 -28.5566,-4.9818 -27.9813,-6.6487 0.3737,-1.0873 7.8168,-8.4265 16.537,-16.3092 z m 215.6099,0.008 46.4332,1.30502 c 39.2357,1.10504 45.8795,1.71454 42.8544,3.92674 -6.3519,4.6447 -63.9507,26.5845 -108.9868,41.5143 -24.1027,7.9903 -45.494,14.5291 -47.5376,14.5291 -2.0427,0 -7.0621,-3.4311 -11.1542,-7.6217 l -7.441,-7.6179 42.9162,-23.0198 z m -62.3645,0.0158 c 17.6689,-0.008 32.1243,0.69781 32.1243,1.57536 0,0.8773 -13.4444,8.6611 -29.8767,17.2976 v 0 c -38.8391,20.4125 -39.2531,20.5785 -45.2439,18.2938 -2.7189,-1.0367 -10.2345,-2.9658 -16.7035,-4.28593 l -11.7648,-2.39767 19.6728,-15.2319 19.6683,-15.23576 z m -406.8532,0.31231 c 18.6088,-0.0377 31.7424,0.1785 31.7424,0.58281 0,4.05724 -6.9015,16.87674 -9.0854,16.87674 -1.5003,0 -11.0604,-2.6689 -21.2435,-5.9306 -23.2734,-7.4553 -31.6932,-7.4827 -48.4139,-0.1546 -24.241,10.6233 -27.0444,10.1726 -25.6764,-4.1082 l 0.6351,-6.6102 51.8929,-0.52898 c 7.1361,-0.0746 13.9488,-0.11426 20.1509,-0.1277 z m 208.9616,0.0444 c 14.3172,0.0671 24.4218,0.53425 24.4218,1.23165 0,0.9302 -7.2025,7.8407 -16.0079,15.3594 l -16.0126,13.6721 -19.3672,3.0502 c -17.0771,2.6906 -20.7899,2.7116 -31.4325,0.1852 -6.6377,-1.5755 -12.0315,-3.837 -12.0315,-5.0271 0,-1.1901 3.4078,-7.9446 7.5217,-15.0119 l 7.4791,-12.84965 39.9232,-0.53642 c 5.4901,-0.0746 10.7338,-0.0957 15.5059,-0.0746 z"
     inkscape:connector-curvature="0" /></svg>